<?xml version="1.0" encoding="UTF-8" standalone="no"?>
<!-- Created with Inkscape (http://www.inkscape.org/) -->

<svg
   xmlns:dc="http://purl.org/dc/elements/1.1/"
   xmlns:cc="http://creativecommons.org/ns#"
   xmlns:rdf="http://www.w3.org/1999/02/22-rdf-syntax-ns#"
   xmlns:svg="http://www.w3.org/2000/svg"
   xmlns="http://www.w3.org/2000/svg"
   xmlns:sodipodi="http://sodipodi.sourceforge.net/DTD/sodipodi-0.dtd"
   xmlns:inkscape="http://www.inkscape.org/namespaces/inkscape"
   width="120px"
   height="120px"
   viewBox="0 0 120 120"
   version="1.1"
   id="SVGRoot"
   inkscape:version="0.92.4 (5da689c313, 2019-01-14)"
   sodipodi:docname="favicon.svg">
  <defs
     id="defs876" />
  <sodipodi:namedview
     id="base"
     pagecolor="#ffffff"
     bordercolor="#666666"
     borderopacity="1.0"
     inkscape:pageopacity="0.0"
     inkscape:pageshadow="2"
     inkscape:zoom="4.2666667"
     inkscape:cx="42.311693"
     inkscape:cy="57.444858"
     inkscape:document-units="px"
     inkscape:current-layer="layer1"
     showgrid="false"
     inkscape:window-width="1366"
     inkscape:window-height="705"
     inkscape:window-x="-8"
     inkscape:window-y="-8"
     inkscape:window-maximized="1"
     inkscape:grid-bbox="true" />
  <metadata
     id="metadata879">
    <rdf:RDF>
      <cc:Work
         rdf:about="">
        <dc:format>image/svg+xml</dc:format>
        <dc:type
           rdf:resource="http://purl.org/dc/dcmitype/StillImage" />
        <dc:title></dc:title>
      </cc:Work>
    </rdf:RDF>
  </metadata>
  <g
     inkscape:label="Layer 1"
     inkscape:groupmode="layer"
     id="layer1">
    <path
       style="opacity:1;fill:#50aab2;fill-opacity:1;stroke:#3984f3;stroke-width:0.1335649;stroke-miterlimit:4;stroke-dasharray:none;stroke-opacity:0"
       d="M 21.586518,60.68308 C 20.829429,59.090853 18.862525,54.817642 17.21561,51.187066 15.568695,47.556484 13.902362,43.886204 13.512649,43.030887 l -0.708581,-1.55512 1.497955,-3.579038 C 17.653107,29.890058 20.278791,24.844686 23.991937,19.277158 27.622041,13.834149 31.366646,9.5708804 36.7536,4.7479056 l 2.310855,-2.0689101 0.556294,0.1239657 c 5.112614,1.1391684 10.095442,2.819196 16.758921,5.6505 3.119898,1.3256367 7.524058,3.5201048 8.134658,4.0532668 l 0.466741,0.407547 -0.466741,0.404583 c -0.256701,0.222524 -1.066843,0.711236 -1.800284,1.08603 -3.390726,1.732648 -6.03574,3.414258 -9.534897,6.061966 -5.757821,4.356772 -11.074989,9.542476 -14.954089,14.584307 -5.061761,6.578998 -10.355969,16.261981 -14.254354,26.070843 -0.524695,1.320212 -0.966073,2.412913 -0.980837,2.428219 -0.01478,0.01537 -0.646271,-1.2749 -1.403349,-2.867126 z"
       id="path3673"
       inkscape:connector-curvature="0" />
    <path
       style="opacity:1;fill:#50aab2;fill-opacity:1;stroke:#3984f3;stroke-width:0.03339123;stroke-miterlimit:4;stroke-dasharray:none;stroke-opacity:0"
       d="m 52.878296,49.467073 v -7.883207 h 5.80095 5.800932 v 5.95929 5.95929 l -1.49175,0.311152 c -0.82044,0.171144 -1.75426,0.376474 -2.075151,0.45629 -1.64419,0.409006 -3.738995,1.114243 -4.852359,1.633593 -0.267816,0.124932 -1.954621,0.892159 -2.973922,1.352652 l -0.208363,0.09414 z"
       id="path3675"
       inkscape:connector-curvature="0" />
    <path
       style="opacity:1;fill:#50aab2;fill-opacity:1;stroke:#3984f3;stroke-width:0.03339123;stroke-miterlimit:4;stroke-dasharray:none;stroke-opacity:0"
       d="m 78.449117,53.652509 c -0.06426,-0.03369 -0.194791,-0.128328 -0.290095,-0.210309 -0.195186,-0.167769 -0.250396,-0.182079 -1.043451,-0.27046 -1.54268,-0.17194 -3.464573,-0.243397 -7.609254,-0.282933 -1.425474,-0.01357 -2.598452,-0.03142 -2.606636,-0.0396 -0.01395,-0.01397 -0.320104,-10.609409 -0.31945,-11.056995 l 5.29e-4,-0.208366 h 6.084316 6.084316 l -0.0011,3.275525 c -0.0011,5.088376 -0.06686,8.743739 -0.158665,8.83158 -0.014,0.01253 -0.07624,-0.0047 -0.140507,-0.03844 z"
       id="path3677"
       inkscape:connector-curvature="0" />
    <path
       style="opacity:1;fill:#50aab2;fill-opacity:1;stroke:#3984f3;stroke-width:0.03339123;stroke-miterlimit:4;stroke-dasharray:none;stroke-opacity:0"
       d="m 69.547669,39.430092 c -1.643932,-0.08612 -2.408947,-0.1903 -2.551169,-0.347462 -0.119748,-0.132223 -0.219777,-0.825117 -0.284084,-1.966149 -0.05787,-1.027184 -0.07824,-4.291646 -0.03553,-5.684242 0.07224,-2.35084 0.213689,-3.907389 0.36916,-4.062864 0.265028,-0.265023 4.247652,2.384342 6.852231,4.55832 1.32765,1.108151 2.210201,2.043678 3.108698,3.295302 0.900028,1.253748 1.603355,2.662743 1.702346,3.410399 0.01796,0.128353 0.02434,0.250954 0.01594,0.272452 -0.07085,0.186767 -1.256045,0.346785 -3.56025,0.480684 -0.563419,0.03274 -5.145724,0.06827 -5.617576,0.04357 z"
       id="path3679"
       inkscape:connector-curvature="0" />
    <path
       style="opacity:1;fill:#50aab2;fill-opacity:1;stroke:#3984f3;stroke-width:0.03339123;stroke-miterlimit:4;stroke-dasharray:none;stroke-opacity:0"
       d="m 52.811798,39.408517 c 5.28e-4,-0.10776 0.440632,-1.716074 0.532901,-1.947198 1.035508,-2.5939 4.962486,-6.543399 8.801775,-8.852237 0.435909,-0.262143 2.281754,-1.294173 2.314705,-1.294173 0.0099,0 0.01996,2.73044 0.01996,6.067643 v 6.067638 h -5.83428 c -4.645292,0 -5.834239,-0.0086 -5.834102,-0.04167 z"
       id="path3681"
       inkscape:connector-curvature="0" />
    <path
       style="opacity:1;fill:#082b4c;fill-opacity:1;stroke:#3984f3;stroke-width:0.2203708;stroke-miterlimit:4;stroke-dasharray:none;stroke-opacity:0"
       d="m 13.578309,115.53651 c 0.09905,-4.87554 0.578045,-8.02666 1.915253,-12.59962 2.355956,-8.056815 6.425597,-15.500161 12.429922,-22.734249 l 1.38626,-1.670173 -2.002415,-3.060337 c -5.55471,-8.489426 -11.61867,-19.857561 -11.61867,-21.781586 0,-0.620562 0.182676,-0.291793 1.643921,2.958713 1.677284,3.731034 4.146737,8.243874 6.7346,12.307246 1.989504,3.123838 5.922742,8.610564 6.179578,8.6203 0.08057,0.0032 1.070688,-0.796933 2.200238,-1.777732 8.089851,-7.024456 16.957909,-11.445171 27.611438,-13.764295 2.732488,-0.594817 3.039122,-0.615209 9.316216,-0.619635 10.233455,-0.0072 15.343556,0.837004 22.520098,3.720353 5.180676,2.081476 8.462892,3.887909 11.440102,6.296328 1.89973,1.53678 1.90378,1.538697 1.90378,0.896832 0,-0.353772 -0.19818,-1.816438 -0.44059,-3.25038 C 102.58201,55.965929 95.7223,41.277799 86.315573,29.503239 84.427177,27.139516 79.903106,22.119175 78.917933,21.294125 78.531764,20.970728 77.092903,19.705782 75.72044,18.483132 69.380158,12.834893 63.758115,9.1091462 56.726563,5.8958142 53.051674,4.2164408 46.550493,2.0034429 44.274885,1.6572675 41.509447,1.2365845 41.491023,1.2313101 41.930283,0.9854941 c 0.49015,-0.27429427 4.386,0.2217045 7.972195,1.0149819 27.1624,6.0083984 54.582522,34.244558 62.015672,63.861272 3.22406,12.846004 2.71823,25.498587 -1.34377,33.612998 -1.7189,3.433744 -4.96613,7.158594 -8.08643,9.275884 -7.292343,4.94823 -17.803671,5.91911 -29.272395,2.70374 C 62.166314,108.35662 51.128368,101.33176 39.407937,89.938254 l -2.793659,-2.715742 -1.276785,0.913028 c -2.473727,1.76894 -5.525106,4.426027 -7.899924,6.879104 -6.48312,6.696796 -10.389698,13.389676 -13.391131,22.942126 l -0.553058,1.7602 z m 72.408194,-9.44792 c 5.013085,-1.14527 8.063845,-2.64789 10.756797,-5.29815 1.803712,-1.775109 2.433375,-3.111348 2.434432,-5.166114 0.0011,-2.229495 -0.7334,-3.707924 -2.960092,-5.957916 -4.202284,-4.246233 -12.087201,-8.008387 -19.975456,-9.530937 -3.869003,-0.74678 -6.923714,-1.012957 -11.625012,-1.012957 -4.593425,0 -7.989859,0.375564 -11.874593,1.313049 -2.799107,0.675491 -7.55902,2.138701 -7.854242,2.414401 -0.254861,0.238021 5.118343,5.353993 7.663108,7.296249 6.068288,4.631519 13.02521,8.584541 19.100787,10.853305 1.192162,0.44517 3.716944,1.20154 5.610631,1.68079 1.893668,0.47927 3.789589,1.02199 4.213124,1.20602 0.762502,0.33132 0.754914,0.33339 -0.770067,0.20852 -2.365177,-0.19365 -7.594487,-1.306 -10.89183,-2.31681 -8.46133,-2.593888 -15.987026,-6.653598 -24.092079,-12.996448 -4.776799,-3.738218 -5.417536,-4.025628 -6.577545,-2.950566 -0.484102,0.448643 -0.549265,0.626055 -0.359904,0.979864 0.597346,1.116136 10.089275,8.691573 13.636573,10.883232 7.112023,4.394088 14.052482,7.335288 19.516597,8.270668 6.163215,1.05507 9.830938,1.0874 14.048771,0.1238 z"
       id="path3691"
       inkscape:connector-curvature="0" />
    <path
       style="opacity:1;fill:#81858e;fill-opacity:1;stroke:#3984f3;stroke-width:0.15582567;stroke-miterlimit:4;stroke-dasharray:none;stroke-opacity:0"
       d="M 11.541934,116.1765 C 10.292172,111.98006 8.5659626,102.93059 7.7358958,96.223784 6.7747134,88.457655 6.490665,83.187479 6.5999727,75.14811 6.7027314,67.589194 6.919491,65.139027 8.1276626,57.87867 8.9466883,52.956862 10.226105,47.376993 10.535617,47.376993 c 0.141319,0 0.902955,1.802715 2.369454,5.608301 1.811236,4.700155 2.966845,7.409366 4.808144,11.272184 1.604107,3.365216 2.21185,4.890332 2.217004,5.563453 0.0016,0.236114 -0.761399,3.456627 -1.695998,7.156703 -0.934607,3.70007 -1.987916,8.127629 -2.340686,9.839012 -1.617872,7.848745 -2.82277,16.828074 -3.662854,27.296954 -0.133583,1.6645 -0.270413,3.05394 -0.304093,3.08761 -0.03369,0.0337 -0.206783,-0.42743 -0.384654,-1.02471 z"
       id="path3697"
       inkscape:connector-curvature="0" />
  </g>
</svg>
