<?xml version="1.0" encoding="UTF-8" standalone="no"?>
<!-- Created with Inkscape (http://www.inkscape.org/) -->

<svg
   xmlns:dc="http://purl.org/dc/elements/1.1/"
   xmlns:cc="http://creativecommons.org/ns#"
   xmlns:rdf="http://www.w3.org/1999/02/22-rdf-syntax-ns#"
   xmlns:svg="http://www.w3.org/2000/svg"
   xmlns="http://www.w3.org/2000/svg"
   xmlns:sodipodi="http://sodipodi.sourceforge.net/DTD/sodipodi-0.dtd"
   xmlns:inkscape="http://www.inkscape.org/namespaces/inkscape"
   width="48px"
   height="48px"
   viewBox="0 0 48 48"
   version="1.1"
   id="SVGRoot"
   inkscape:version="0.92.4 (5da689c313, 2019-01-14)"
   sodipodi:docname="adv1.svg">
  <defs
     id="defs4874" />
  <sodipodi:namedview
     id="base"
     pagecolor="#ffffff"
     bordercolor="#666666"
     borderopacity="1.0"
     inkscape:pageopacity="0.0"
     inkscape:pageshadow="2"
     inkscape:zoom="10.666667"
     inkscape:cx="14.86158"
     inkscape:cy="24.271077"
     inkscape:document-units="px"
     inkscape:current-layer="layer1"
     showgrid="false"
     inkscape:window-width="1366"
     inkscape:window-height="705"
     inkscape:window-x="-8"
     inkscape:window-y="-8"
     inkscape:window-maximized="1"
     inkscape:grid-bbox="true" />
  <metadata
     id="metadata4877">
    <rdf:RDF>
      <cc:Work
         rdf:about="">
        <dc:format>image/svg+xml</dc:format>
        <dc:type
           rdf:resource="http://purl.org/dc/dcmitype/StillImage" />
        <dc:title></dc:title>
      </cc:Work>
    </rdf:RDF>
  </metadata>
  <g
     inkscape:label="Layer 1"
     inkscape:groupmode="layer"
     id="layer1">
    <path
       style="fill:#2f78ff;stroke-width:0.21076757;fill-opacity:1"
       d="m 0.251243,46.8249 c 0.0028,-2.0779 1.619026,-10.41074 2.513268,-12.95767 0.542788,-1.54593 1.351208,-2.582 5.502378,-7.05182 6.728676,-7.245191 12.182692,-12.800044 17.62194,-17.94775 6.445383,-6.099913 7.221128,-6.744922 9.330378,-7.757928 1.343652,-0.645315 1.842755,-0.77008 3.337326,-0.834269 1.661585,-0.07136 1.839799,-0.03471 3.269054,0.672404 1.715952,0.848953 4.262192,3.290969 5.313624,5.096122 0.548797,0.942206 0.613773,1.245095 0.610689,2.846844 -0.0032,1.644812 -0.06635,1.914047 -0.767065,3.268598 -1.314956,2.541941 -2.60687,4.061321 -8.068814,9.489479 -2.917609,2.89956 -9.026084,9.16262 -13.57439,13.9179 -4.548304,4.75529 -8.617786,8.85062 -9.04329,9.10074 -0.808193,0.47507 -12.077943,2.74876 -14.729729,2.97174 L 0.25,47.75 0.2513,46.8249 Z m 11.690269,-2.49294 2.527894,-0.54899 -0.01782,-1.80903 c -0.02637,-2.6773 0.11054,-2.54746 -2.619548,-2.48439 -1.277255,0.0295 -2.403007,-0.0344 -2.501671,-0.14209 C 9.231697,39.23981 9.050558,38.34438 8.927827,37.35762 8.805093,36.37086 8.610344,35.31514 8.495049,35.01158 8.270387,34.42005 7.997616,34.33219 5.582464,34.07342 L 4.279208,33.93378 3.954611,35.06661 c -0.178524,0.62306 -0.494197,1.93944 -0.70149,2.92529 l -0.376897,1.79246 2.636723,2.65428 c 2.414253,2.43033 2.690046,2.64534 3.268698,2.5483 0.347585,-0.0583 1.769526,-0.35303 3.159867,-0.65498 z M 24.920611,33.74572 c 4.911126,-5.11899 8.949796,-9.36553 8.974822,-9.43676 0.02503,-0.0712 -0.403189,-0.635794 -0.951588,-1.25457 l -0.99709,-1.125047 -3.552029,3.866457 c -1.953616,2.12654 -5.674036,6.06578 -8.267603,8.75386 l -4.715574,4.8874 0.125851,1.54435 c 0.126934,1.55766 0.218964,2.07155 0.370977,2.07155 0.0456,0 4.101108,-4.18826 9.012234,-9.30724 z m -5.43969,-0.23496 c 5.572594,-5.77467 11.4198,-12.114553 11.4198,-12.382015 0,-0.103855 -0.995359,-1.095109 -2.211908,-2.202788 l -2.211908,-2.013963 -3.865911,3.844599 c -2.126252,2.11453 -5.53891,5.688487 -7.583683,7.942127 -5.699149,6.28129 -5.240083,5.67704 -5.05766,6.65722 0.08634,0.46393 0.162452,1.3417 0.169129,1.95061 l 0.01214,1.10711 h 2.299337 2.299337 z M 12.5924,29.60953 c 1.943949,-2.17467 5.65616,-6.09801 8.249359,-8.718526 l 4.714906,-4.764572 -1.287985,-1.116964 -1.287985,-1.116963 -0.645319,0.609604 c -0.354925,0.335282 -3.83603,3.883475 -7.735785,7.884872 C 7.682644,29.48421 4.893498,32.58842 5.177827,32.87305 c 0.127709,0.12784 2.694744,0.61322 3.531313,0.66771 0.202655,0.0132 1.829769,-1.63401 3.88326,-3.93123 z m 23.113859,-6.967875 c 0.3216,-0.355735 0.09747,-0.62062 -3.811859,-4.505063 -2.284452,-2.269908 -4.756838,-4.619449 -5.494193,-5.221202 -1.279679,-1.044342 -1.358712,-1.077729 -1.737928,-0.734186 -0.218504,0.19795 -0.390637,0.463821 -0.382518,0.590823 0.0081,0.127002 1.381999,1.417098 3.053066,2.86688 1.671067,1.449781 4.103875,3.703533 5.40624,5.008336 1.302367,1.304803 2.425889,2.37237 2.496719,2.37237 0.07083,0 0.282541,-0.170081 0.470473,-0.377958 z m 2.039882,-2.046138 0.71366,-0.737078 -0.608533,-0.635833 -0.608532,-0.635831 -0.800306,0.782294 -0.800308,0.782292 0.565258,0.590616 c 0.310891,0.32484 0.623722,0.590617 0.695177,0.590617 0.07146,0 0.451069,-0.331685 0.843584,-0.737077 z m -2.102393,-2.113098 0.717846,-0.741401 -0.518528,-0.513125 -0.51853,-0.513128 -0.808269,0.746963 -0.808267,0.746961 0.476338,0.507565 c 0.261984,0.279162 0.536012,0.507567 0.60895,0.507567 0.07294,0 0.455645,-0.333631 0.85046,-0.741402 z m 2.322916,-2.822234 C 36.703302,14.314683 34.35535,11.905948 32.748989,10.307439 L 29.828335,7.401061 29.368204,7.89136 28.90807,8.381659 l 5.2075,5.304738 5.207501,5.304738 0.470308,-0.44229 0.470306,-0.442292 z m -4.284756,0.991741 c 0.824231,-0.799707 0.850748,-1.003596 0.209021,-1.607095 l -0.485644,-0.456715 -0.817981,0.83856 -0.81798,0.83856 0.497715,0.530343 c 0.273744,0.29169 0.547774,0.530346 0.608959,0.530346 0.06118,0 0.423844,-0.3033 0.80591,-0.673999 z M 44.718331,12.952473 C 47.126578,9.259565 46.888172,7.525851 43.498152,4.079187 41.621613,2.171293 40.585703,1.631346 38.800391,1.630572 36.746384,1.629687 35.332208,2.400964 32.150349,5.257462 l -1.237956,1.111369 5.26061,5.278006 5.260611,5.278006 1.141662,-1.218398 c 0.627917,-0.670119 1.59229,-1.909406 2.143055,-2.753972 z M 35.446863,7.906051 C 34.815768,5.618028 34.716247,4.854226 35.023856,4.659554 35.55287,4.324762 35.73032,4.565774 36.210683,6.27151 c 0.613137,2.1772 0.609909,2.408446 -0.03361,2.408446 -0.415904,0 -0.558397,-0.151021 -0.730205,-0.773905 z m 1.898261,-1.375815 c -0.59317,-1.758307 -0.584719,-2.328524 0.03322,-2.240651 0.366193,0.05207 0.578755,0.354895 0.935439,1.33265 0.629078,1.724455 0.624501,2.214211 -0.02069,2.214211 -0.43394,0 -0.57103,-0.188897 -0.94796,-1.30621 z m -5.297108,6.681832 -0.530083,-0.530634 -0.822265,0.842953 -0.822265,0.842953 0.503938,0.536975 0.503936,0.536975 0.848412,-0.849294 0.84841,-0.849294 z m -2.203658,-0.522292 0.819733,-0.840358 -0.501539,-0.534418 -0.501538,-0.534419 -0.905083,0.889197 -0.905083,0.889197 0.455703,0.48558 c 0.250637,0.267068 0.514736,0.485579 0.586889,0.485579 0.07215,0 0.500064,-0.378161 0.950918,-0.840358 z m -1.57388,-3.046174 -0.421316,-0.421755 -0.954002,0.937256 -0.954,0.937256 0.478531,0.363203 c 0.467622,0.354923 0.498974,0.343172 1.375315,-0.515501 l 0.896788,-0.878705 z"
       id="path5475"
       inkscape:connector-curvature="0" />
  </g>
</svg>
