<?xml version="1.0" encoding="UTF-8" standalone="no"?>
<!-- Created with Inkscape (http://www.inkscape.org/) -->

<svg
   xmlns:dc="http://purl.org/dc/elements/1.1/"
   xmlns:cc="http://creativecommons.org/ns#"
   xmlns:rdf="http://www.w3.org/1999/02/22-rdf-syntax-ns#"
   xmlns:svg="http://www.w3.org/2000/svg"
   xmlns="http://www.w3.org/2000/svg"
   xmlns:sodipodi="http://sodipodi.sourceforge.net/DTD/sodipodi-0.dtd"
   xmlns:inkscape="http://www.inkscape.org/namespaces/inkscape"
   width="48px"
   height="48px"
   viewBox="0 0 48 48"
   version="1.1"
   id="SVGRoot"
   inkscape:version="0.92.4 (5da689c313, 2019-01-14)"
   sodipodi:docname="adv2.svg">
  <defs
     id="defs4874" />
  <sodipodi:namedview
     id="base"
     pagecolor="#ffffff"
     bordercolor="#666666"
     borderopacity="1.0"
     inkscape:pageopacity="0.0"
     inkscape:pageshadow="2"
     inkscape:zoom="10.666667"
     inkscape:cx="-0.37279452"
     inkscape:cy="24.271077"
     inkscape:document-units="px"
     inkscape:current-layer="layer1"
     showgrid="false"
     inkscape:window-width="1366"
     inkscape:window-height="705"
     inkscape:window-x="-8"
     inkscape:window-y="-8"
     inkscape:window-maximized="1"
     inkscape:grid-bbox="true" />
  <metadata
     id="metadata4877">
    <rdf:RDF>
      <cc:Work
         rdf:about="">
        <dc:format>image/svg+xml</dc:format>
        <dc:type
           rdf:resource="http://purl.org/dc/dcmitype/StillImage" />
        <dc:title />
      </cc:Work>
    </rdf:RDF>
  </metadata>
  <g
     inkscape:label="Layer 1"
     inkscape:groupmode="layer"
     id="layer1">
    <path
       style="fill:#50aab2;stroke-width:0.20958814;fill-opacity:1"
       d="M 9.260672,46.94507 C 8.664876,46.32094 8.434375,45.85588 8.243541,44.89293 c -0.435079,-2.19543 0.02513,-4.4165 1.985532,-9.58265 1.650264,-4.34885 1.737441,-5.17292 0.6694,-6.3277 C 10.504356,28.55645 8.6153,27.09043 6.700572,25.72475 0.935016,21.61247 0.25,20.87798 0.25,18.808276 c 0,-1.812848 0.586705,-2.567093 2.453483,-3.154105 0.888379,-0.279352 2.447005,-0.380321 7.474313,-0.484192 l 6.351871,-0.131238 1.950437,-6.1396435 c 1.924023,-6.05649 2.53673,-7.467689 3.519523,-8.10622105 1.427755,-0.927632 3.431571,-0.644105 4.802323,0.67949605 1.270103,1.226412 1.904873,2.822983 3.218941,8.09627 0.632109,2.5366235 1.204965,4.8237895 1.273012,5.0825905 l 0.123722,0.470548 6.890318,-0.03199 c 6.790323,-0.03152 6.903173,-0.02494 7.776007,0.45372 1.547369,0.848571 2.122436,3.159022 1.273719,5.117449 -0.573628,1.32364 -1.673259,2.36268 -6.511099,6.15227 -2.393201,1.87466 -4.351274,3.50926 -4.351274,3.63246 0,0.1232 0.79799,2.7885 1.773314,5.92289 1.560057,5.01355 1.775202,5.89236 1.789025,7.30774 0.01298,1.33007 -0.06722,1.7494 -0.462906,2.41995 -1.030163,1.74576 -3.096163,2.09251 -5.375042,0.90211 -1.44872,-0.75675 -5.058901,-3.62335 -7.804593,-6.19709 -1.207986,-1.13233 -2.288606,-2.05879 -2.401378,-2.05879 -0.11277,0 -2.481734,1.79848 -5.264363,3.99662 -5.275498,4.16738 -6.604213,5.00736 -7.926303,5.01086 -0.644012,0.002 -0.935947,-0.14869 -1.562378,-0.80491 z m 28.598585,-1.46012 c 0.593256,-0.39129 0.965342,-1.64861 0.802866,-2.71299 -0.07223,-0.4732 -0.539239,-1.89717 -1.037797,-3.16437 -0.88699,-2.25452 -2.767236,-8.81217 -2.767236,-9.65118 0,-0.30039 1.325075,-1.47848 4.556259,-4.05085 2.505942,-1.995 5.028926,-4.1521 5.606633,-4.79357 1.81504,-2.015355 1.642316,-3.25337 -0.584866,-4.192072 -1.362467,-0.574247 -2.515012,-0.623922 -9.014925,-0.388549 -3.535905,0.128041 -4.730401,0.106345 -4.956266,-0.09002 -0.352372,-0.306348 -0.581031,-1.100375 -1.94902,-6.7680225 -1.18215,-4.897696 -1.756783,-6.328229 -2.845047,-7.082657 -2.228506,-1.544886 -3.707161,-0.331196 -4.842525,3.974782 -0.771406,2.925634 -2.031754,6.8039545 -2.783246,8.5645535 l -0.647762,1.517589 -2.481087,0.02706 c -8.387795,0.09147 -10.935283,0.180481 -11.49214,0.401548 -0.928724,0.368695 -1.534893,1.065572 -1.534893,1.764578 0,1.4229 1.260028,2.80554 4.408055,4.83702 2.175012,1.40357 6.762708,5.05528 7.140165,5.68342 0.178421,0.29692 0.05922,0.86475 -0.562673,2.68024 -2.514104,7.33949 -3.202188,9.58709 -3.327614,10.86955 -0.135476,1.3852 -0.131757,1.39883 0.587451,2.15224 0.433069,0.45366 0.924508,0.75821 1.223501,0.75821 0.776106,0 2.773014,-1.14635 4.37723,-2.51279 0.801451,-0.68266 2.091538,-1.78028 2.86686,-2.43914 1.800922,-1.53042 5.285008,-4.05765 5.593949,-4.05765 0.130266,0 1.514259,1.21954 3.075536,2.7101 4.074207,3.88965 6.730475,5.81379 8.712692,6.31125 0.696593,0.17482 1.234088,0.075 1.8759,-0.34828 z M 12.924398,23.59191 c -0.24044,-0.30349 -0.187712,-0.42691 0.403166,-0.94365 0.86158,-0.75349 4.334195,-2.56845 4.914275,-2.56845 0.305384,0 0.437972,0.13347 0.437972,0.4409 0,0.3288 -0.299357,0.58327 -1.17746,1.00092 -0.647603,0.30802 -1.839092,0.9784 -2.647756,1.48973 -0.808663,0.51133 -1.511535,0.9297 -1.561938,0.9297 -0.0504,0 -0.216119,-0.15712 -0.368259,-0.34915 z m -2.435614,-1.35027 c 0,-0.80899 3.260646,-3.236754 3.966236,-2.953118 0.613807,0.246741 0.344344,0.723648 -0.843407,1.492688 -0.647603,0.41931 -1.400858,1.01222 -1.6739,1.31758 -0.598833,0.6697 -1.448929,0.75351 -1.448929,0.14285 z"
       id="path5447"
       inkscape:connector-curvature="0" />
  </g>
</svg>
