<?xml version="1.0" encoding="UTF-8" standalone="no"?>
<!-- Created with Inkscape (http://www.inkscape.org/) -->

<svg
   xmlns:dc="http://purl.org/dc/elements/1.1/"
   xmlns:cc="http://creativecommons.org/ns#"
   xmlns:rdf="http://www.w3.org/1999/02/22-rdf-syntax-ns#"
   xmlns:svg="http://www.w3.org/2000/svg"
   xmlns="http://www.w3.org/2000/svg"
   xmlns:sodipodi="http://sodipodi.sourceforge.net/DTD/sodipodi-0.dtd"
   xmlns:inkscape="http://www.inkscape.org/namespaces/inkscape"
   width="48px"
   height="48px"
   viewBox="0 0 48 48"
   version="1.1"
   id="SVGRoot"
   inkscape:version="0.92.4 (5da689c313, 2019-01-14)"
   sodipodi:docname="adv3.svg">
  <defs
     id="defs4874" />
  <sodipodi:namedview
     id="base"
     pagecolor="#ffffff"
     bordercolor="#666666"
     borderopacity="1.0"
     inkscape:pageopacity="0.0"
     inkscape:pageshadow="2"
     inkscape:zoom="10.666667"
     inkscape:cx="14.86158"
     inkscape:cy="24.271077"
     inkscape:document-units="px"
     inkscape:current-layer="layer1"
     showgrid="false"
     inkscape:window-width="1366"
     inkscape:window-height="705"
     inkscape:window-x="-8"
     inkscape:window-y="-8"
     inkscape:window-maximized="1"
     inkscape:grid-bbox="true" />
  <metadata
     id="metadata4877">
    <rdf:RDF>
      <cc:Work
         rdf:about="">
        <dc:format>image/svg+xml</dc:format>
        <dc:type
           rdf:resource="http://purl.org/dc/dcmitype/StillImage" />
        <dc:title></dc:title>
      </cc:Work>
    </rdf:RDF>
  </metadata>
  <g
     inkscape:label="Layer 1"
     inkscape:groupmode="layer"
     id="layer1">
    <path
       style="fill:#2f78ff;stroke-width:0.19518417;fill-opacity:1"
       d="M 7.6747923,47.539558 C 6.531116,46.922236 5.1506848,45.705108 3.2524552,43.640392 2.0911297,42.377209 0.98562656,41.121715 0.795775,40.850401 0.33058177,40.185609 0.35978438,39.153167 0.8666292,38.345211 c 1.0887494,-1.73561 7.0236132,-7.740431 8.2686347,-8.366105 0.331175,-0.166428 1.2963251,-0.394903 2.1447771,-0.507715 0.848452,-0.112813 1.648225,-0.307266 1.777274,-0.432102 0.12905,-0.124836 0.278626,-0.892198 0.332394,-1.70524 0.05376,-0.813032 0.203216,-1.669744 0.332107,-1.90379 0.435474,-0.790746 1.821548,-2.101726 2.22212,-2.101726 0.218837,0 1.042284,0.56047 1.829881,1.245489 1.398808,1.216633 1.440014,1.23689 1.77811,0.873822 0.335251,-0.360001 0.244398,-0.474822 -2.894572,-3.658311 l -3.240688,-3.286644 -0.890979,0.151961 c -0.490036,0.08362 -2.004699,0.15197 -3.3659141,0.15197 -2.3168897,0 -2.5548914,-0.03592 -3.7269697,-0.561767 C 2.0472219,16.726003 0.25,14.009686 0.25,10.411769 0.25,8.6397128 0.68805885,7.2266275 1.6343677,5.9460573 2.2697693,5.0862282 2.9214297,4.655799 3.3631896,4.8041673 3.496437,4.8488964 4.335475,6.0847177 5.2277308,7.5503895 l 1.6222794,2.6648485 1.6176076,0.130952 c 0.8896839,0.07204 1.7855042,0.09952 1.9907102,0.06116 0.394481,-0.07382 1.630851,-2.5838315 1.657381,-3.3647216 0.0077,-0.2265196 -0.693194,-1.6494018 -1.55753,-3.1619561 C 8.8300012,0.85641973 8.7877183,0.55275522 10.062433,0.32035951 c 0.384918,-0.0701713 1.476825,-0.091487 2.426459,-0.0473714 1.415115,0.0657479 1.967398,0.18972785 3.061334,0.68720922 4.531882,2.06093777 6.270087,6.97065727 4.011686,11.33136467 l -0.643865,1.243233 2.892166,2.571244 c 1.590692,1.414194 3.122221,2.746777 3.4034,2.961299 l 0.511233,0.390054 5.761854,-5.616627 c 3.629682,-3.538206 5.798644,-5.7946439 5.861278,-6.0976741 0.05468,-0.2645651 0.145683,-0.8273708 0.202222,-1.2506848 0.07906,-0.5919291 0.291968,-0.9348296 0.922022,-1.4849489 0.944265,-0.8244812 5.284551,-3.0367628 5.957835,-3.0367628 0.540928,0 2.48643,1.9121707 2.670451,2.6247004 0.147253,0.5701583 -1.375236,3.9250832 -2.406629,5.303197 -0.698629,0.9334832 -0.742885,0.9543342 -3.161927,1.4897382 -0.940813,0.208238 -1.269872,0.490744 -6.626206,5.688837 l -5.636234,5.469714 0.882738,0.727561 c 4.53427,3.737231 9.456463,8.065163 12.626072,11.101729 3.147724,3.015587 3.928171,3.872863 4.432999,4.869403 0.528919,1.044099 0.597652,1.351098 0.50269,2.245246 -0.270667,2.548582 -2.14479,4.240037 -4.697096,4.239275 -2.51199,-7.72e-4 -2.458789,0.04305 -14.112408,-11.626386 -5.235311,-5.242426 -5.693192,-5.652341 -5.991786,-5.364175 -0.298742,0.288325 -0.230128,0.408817 0.903402,1.586401 1.443504,1.499605 1.460393,1.838715 0.143215,2.875522 -1.106833,0.871229 -1.898302,1.248141 -2.94858,1.404159 -0.935922,0.139036 -1.570843,0.396387 -1.799708,0.729481 -0.08001,0.116444 -0.146828,0.660656 -0.148496,1.20936 -0.004,1.289833 -0.202491,1.76509 -1.338699,3.203993 -1.22866,1.555991 -7.12062,7.400589 -7.8096109,7.746834 -0.6387305,0.320991 -1.6883865,0.341763 -2.239432,0.04433 z m 5.5365357,-5.195866 c 2.032786,-2.029279 3.841431,-3.95582 4.019207,-4.281195 0.217554,-0.398188 0.329562,-1.111994 0.342598,-2.183357 0.01743,-1.431561 0.06959,-1.640571 0.518331,-2.07666 0.413016,-0.401375 0.752524,-0.504638 1.970971,-0.599509 1.588593,-0.123688 2.239966,-0.357824 2.858437,-1.027435 l 0.395523,-0.428233 -3.538503,-3.343524 c -1.946178,-1.838943 -3.644553,-3.343535 -3.77417,-3.343535 -0.129615,0 -0.447645,0.278637 -0.706733,0.619202 -0.379727,0.499126 -0.495835,0.95284 -0.598784,2.33988 -0.159357,2.146999 -0.482981,2.511176 -2.406667,2.708251 -1.496852,0.153346 -2.16383,0.378932 -3.2754823,1.107839 -0.9850906,0.645921 -6.2693271,6.101008 -6.7074057,6.924272 -0.4885771,0.918175 -0.1923057,1.506374 1.8884219,3.749165 2.5746415,2.775188 3.5408845,3.483096 4.7939889,3.512239 0.4271022,0.0099 1.2093982,-0.671729 4.2202672,-3.6774 z m -5.6850326,1.557644 c -0.6414736,-0.363088 -0.4514617,-1.553715 0.4170094,-2.612995 1.2732286,-1.552953 5.7875872,-6.028977 6.3817822,-6.327584 1.648873,-0.828627 2.575695,0.560471 1.512582,2.267027 -0.668591,1.073252 -5.829823,6.234414 -6.5808397,6.580748 -0.7490206,0.345414 -1.2379282,0.371628 -1.7305339,0.09282 z m 2.4459967,-2.163041 c 2.5782549,-2.137867 5.2758239,-5.245475 4.8839379,-5.626316 -0.224067,-0.217748 -0.948532,0.415635 -3.718454,3.250969 -2.3848831,2.441203 -3.2759287,3.591732 -2.7816793,3.591732 0.082086,0 0.8093713,-0.547378 1.6161954,-1.216385 z m -5.520361,-1.007278 c -0.5814712,-0.395803 -0.5532978,-0.752964 0.1539782,-1.951408 0.7085288,-1.200592 5.0738629,-5.749746 6.1016157,-6.358568 1.801625,-1.067235 3.266801,-0.03117 2.243464,1.586421 -0.56971,0.900541 -5.9841397,6.443484 -6.5929551,6.749443 -0.707752,0.355666 -1.3585346,0.346839 -1.9061028,-0.02593 z m 4.757322,-4.238503 c 2.7312419,-2.786578 3.4275879,-3.709057 2.5739349,-3.409768 -0.786163,0.275629 -1.604916,1.022814 -4.0309994,3.678687 -1.4037843,1.536734 -2.5523333,2.959062 -2.5523333,3.160729 0,0.3505 0.023997,0.34867 0.5444855,-0.04166 0.2994677,-0.224586 1.858678,-1.749167 3.4649123,-3.387957 z m 35.7074809,7.214032 c 0.752753,-0.709027 1.067324,-1.558782 1.06898,-2.887644 7.93e-4,-0.685385 -0.137313,-1.070788 -0.612346,-1.70807 C 44.338397,37.722378 41.167961,34.76289 35.988074,30.350002 22.893466,19.194351 17.277549,14.18506 17.277549,13.660601 c 0,-0.189861 0.217019,-0.679299 0.482265,-1.087631 0.694415,-1.069007 1.056563,-1.987647 1.301889,-3.3023978 0.699802,-3.7503821 -2.817217,-7.665313 -6.899567,-7.6801746 l -1.254508,-0.00455 0.738159,1.2987895 c 0.405987,0.7143346 1.047954,1.7934396 1.426594,2.3979958 0.605985,0.967565 0.672185,1.1979994 0.552764,1.9241358 -0.07461,0.453714 -0.520052,1.6474978 -0.989856,2.6528551 l -0.854186,1.8279282 -1.657166,0.130962 C 8.3333254,11.960032 6.3273588,11.74934 5.8575957,11.370497 5.6966419,11.240694 5.3380733,10.696106 5.0607753,10.160326 4.7834772,9.6245461 4.1994271,8.5989123 3.7628823,7.8811577 2.9889688,6.608702 2.9617156,6.5864859 2.6702833,6.9908296 0.7670474,9.6314831 1.5686,13.817668 4.3928609,15.987181 c 2.0477646,1.573031 4.8300573,2.048021 7.6664011,1.308793 0.6691,-0.174385 1.352736,-0.317063 1.519186,-0.317063 0.166452,0 4.290976,4.004596 9.165609,8.899115 14.753225,14.813378 17.675873,17.639173 18.787875,18.165236 1.361542,0.644119 2.459448,0.534899 3.384802,-0.336696 z m -4.093014,-1.50672 c -0.47468,-0.461294 -0.578755,-0.724266 -0.578755,-1.462337 0,-0.766867 0.09952,-0.996619 0.673183,-1.55411 1.105721,-1.074549 2.671293,-0.842314 3.386845,0.502401 0.598479,1.124701 0.249071,2.214381 -0.894294,2.788962 -0.944521,0.474664 -1.922612,0.370728 -2.586979,-0.274916 z m 2.265471,-0.798415 c 0.648928,-0.496059 0.657313,-0.833794 0.0357,-1.437885 -0.589544,-0.572919 -0.97141,-0.595274 -1.493961,-0.08748 -0.481484,0.467915 -0.508909,1.09913 -0.06831,1.57226 0.427364,0.458919 0.883177,0.444907 1.526571,-0.04691 z M 22.179813,27.915746 c 0.174115,-0.169199 0.0329,-0.451399 -0.584472,-1.167995 l -0.814054,-0.944894 -0.401189,0.389876 -0.401188,0.389886 0.876762,0.770222 c 0.983277,0.863807 1.005006,0.87305 1.324141,0.562905 z M 40.012416,10.742389 c 0.362135,-0.181747 1.155723,-0.409103 1.763528,-0.505241 1.308889,-0.207021 1.843083,-0.6318592 2.652188,-2.1092674 C 44.746894,7.5458275 45.228,6.6879973 45.497259,6.221587 45.766517,5.7551766 45.98682,5.2170313 45.98682,5.0257053 c 0,-0.4305677 -1.075268,-1.6474602 -1.598259,-1.8087722 -0.267325,-0.082452 -1.191354,0.3348097 -3.007229,1.3579675 -1.44173,0.8123489 -2.686788,1.5761093 -2.766793,1.6972343 -0.08001,0.121125 -0.14683,0.660715 -0.148497,1.199078 -0.0026,0.8282416 -0.121582,1.1390994 -0.773521,2.0203431 -0.423768,0.57282 -1.515216,1.66441 -2.425438,2.425746 -0.910223,0.761335 -3.241647,2.931937 -5.180943,4.823555 l -3.525995,3.439297 0.940377,0.842373 0.940377,0.842372 5.456545,-5.396029 c 3.0011,-2.96781 5.752835,-5.544724 6.114972,-5.726481 z"
       id="path4863"
       inkscape:connector-curvature="0" />
  </g>
</svg>
