<?xml version="1.0" encoding="UTF-8" standalone="no"?>
<!-- Created with Inkscape (http://www.inkscape.org/) -->

<svg
   xmlns:dc="http://purl.org/dc/elements/1.1/"
   xmlns:cc="http://creativecommons.org/ns#"
   xmlns:rdf="http://www.w3.org/1999/02/22-rdf-syntax-ns#"
   xmlns:svg="http://www.w3.org/2000/svg"
   xmlns="http://www.w3.org/2000/svg"
   xmlns:sodipodi="http://sodipodi.sourceforge.net/DTD/sodipodi-0.dtd"
   xmlns:inkscape="http://www.inkscape.org/namespaces/inkscape"
   width="48px"
   height="48px"
   viewBox="0 0 48 48"
   version="1.1"
   id="SVGRoot"
   inkscape:version="0.92.4 (5da689c313, 2019-01-14)"
   sodipodi:docname="adv4.svg">
  <defs
     id="defs4874" />
  <sodipodi:namedview
     id="base"
     pagecolor="#ffffff"
     bordercolor="#666666"
     borderopacity="1.0"
     inkscape:pageopacity="0.0"
     inkscape:pageshadow="2"
     inkscape:zoom="10.666667"
     inkscape:cx="-0.37279452"
     inkscape:cy="24.271077"
     inkscape:document-units="px"
     inkscape:current-layer="layer1"
     showgrid="false"
     inkscape:window-width="1366"
     inkscape:window-height="705"
     inkscape:window-x="-8"
     inkscape:window-y="-8"
     inkscape:window-maximized="1"
     inkscape:grid-bbox="true" />
  <metadata
     id="metadata4877">
    <rdf:RDF>
      <cc:Work
         rdf:about="">
        <dc:format>image/svg+xml</dc:format>
        <dc:type
           rdf:resource="http://purl.org/dc/dcmitype/StillImage" />
        <dc:title />
      </cc:Work>
    </rdf:RDF>
  </metadata>
  <g
     inkscape:label="Layer 1"
     inkscape:groupmode="layer"
     id="layer1">
    <path
       style="fill:#50aab2;stroke-width:0.19976218;fill-opacity:1"
       d="m 35.90074,47.632242 c -0.393809,-0.41953 -0.04078,-0.84265 1.173107,-1.40601 1.789566,-0.83054 3.882429,-2.36113 5.384673,-3.93803 1.343809,-1.41058 1.829042,-1.63212 1.829042,-0.83505 0,1.06037 -3.210085,3.91864 -6.082527,5.41591 -1.73949,0.90671 -2.067566,1.01537 -2.304295,0.76318 z m 4.379466,-0.2078 c -0.08186,-0.22726 0.02607,-0.45628 0.315789,-0.67009 0.242086,-0.17866 0.811313,-0.67277 1.264952,-1.09802 0.878966,-0.82397 1.399197,-0.97267 1.586236,-0.45342 0.144065,0.39995 -0.528445,1.19851 -1.665174,1.97729 -0.987107,0.67627 -1.326309,0.73144 -1.501803,0.24424 z m -17.669354,-0.62145 c -6.289989,-0.70558 -12.9290888,-3.73164 -16.9260458,-7.71479 -2.409529,-2.4012 -4.268978,-5.69073 -5.057453,-8.94708 -0.495501,-2.04638 -0.504793,-7.16915 -0.0174,-9.58748 1.959986,-9.72482 9.5627808,-17.6934716 18.9042178,-19.81391563 2.648363,-0.601162 7.187557,-0.6576 9.717709,-0.120826 7.255236,1.53920203 12.731361,5.94943203 15.920233,12.82145863 2.177441,4.692383 2.975959,9.232133 2.433736,13.836313 -0.666646,5.6607 -3.636872,11.30661 -7.667093,14.5739 -1.887453,1.53015 -5.209833,3.367 -7.340497,4.05836 -2.645526,0.85842 -6.890612,1.2392 -9.967415,0.89406 z m 4.162645,-6.5074 0.138371,-4.69064 h -1.287196 c -2.573647,0 -8.136584,0.92091 -9.850563,1.63071 l -0.546625,0.22637 0.917587,1.1442 c 1.124535,1.40224 3.302946,3.29127 5.126015,4.44508 1.443888,0.91382 5.015608,2.33584 5.234465,2.08402 0.07127,-0.082 0.191843,-2.25988 0.267946,-4.83974 z m -6.788474,3.71128 c -1.306359,-0.81792 -2.30085,-1.69011 -4.069375,-3.56894 -2.145046,-2.27884 -2.37941,-2.46958 -2.80636,-2.28396 -1.480014,0.64344 -3.8528368,1.8603 -3.8528368,1.97586 0,0.23179 2.9326608,2.02643 4.3546958,2.66486 2.541921,1.14119 6.125056,2.2225 7.535128,2.27393 0.465848,0.017 0.257651,-0.17336 -1.161252,-1.06175 z m 10.077198,-0.47343 c 0.638689,-0.4854 1.65426,-1.42408 2.256827,-2.08597 1.204071,-1.3226 3.259122,-4.28975 3.259122,-4.70562 0,-0.28361 -2.874984,-0.81025 -5.757876,-1.05474 l -1.596722,-0.13541 v 1.23078 c 0,0.67694 -0.05764,2.78782 -0.128096,4.69084 l -0.128094,3.46005 0.466793,-0.2587 c 0.256737,-0.14229 0.989358,-0.65584 1.628046,-1.14123 z m 2.724076,0.65729 c 1.687702,-0.61227 3.954073,-1.8161 5.211148,-2.76802 1.226587,-0.92884 2.999902,-2.55154 2.999902,-2.74512 0,-0.15901 -2.486618,-1.30569 -3.30175,-1.52256 -0.455247,-0.12113 -0.59628,0.0321 -1.740429,1.89097 -0.725438,1.1786 -1.955525,2.77569 -2.947477,3.82687 -0.936342,0.99225 -1.670775,1.80409 -1.632072,1.80409 0.0387,0 0.673507,-0.2188 1.410678,-0.48623 z M 9.7790062,38.113202 c 1.0431958,-0.54827 2.1721688,-1.11286 2.5088278,-1.25465 l 0.612108,-0.2578 -0.744977,-1.47727 c -0.831429,-1.6487 -1.63883,-4.07675 -1.837056,-5.52446 l -0.130688,-0.95446 -1.5782518,-0.13881 c -0.868038,-0.0764 -2.786736,-0.32332 -4.263774,-0.54882 -1.477037,-0.2255 -2.722401,-0.37072 -2.767479,-0.3227 -0.154853,0.16497 0.523907,2.86941 1.063612,4.23785 0.739565,1.87517 1.958029,3.7413 3.682589,5.64005 0.798227,0.87885 1.475408,1.59791 1.504845,1.59791 0.02944,0 0.907047,-0.44858 1.950244,-0.99684 z m 33.4315658,-2.37624 c 1.249184,-2.00002 2.108122,-4.09228 2.63584,-6.42057 0.43418,-1.9156 0.476142,-2.78324 0.134643,-2.784 -0.237457,-6.2e-4 -4.876716,0.76532 -5.686726,0.93876 -0.354352,0.0759 -0.432499,0.28546 -0.552687,1.48226 -0.16373,1.63037 -0.902316,4.46885 -1.472775,5.66007 -0.219756,0.45889 -0.327177,0.90167 -0.238717,0.98396 0.08846,0.0823 0.683401,0.35516 1.32209,0.60638 0.638689,0.25122 1.466081,0.63288 1.838649,0.84812 0.372569,0.21525 0.737188,0.39525 0.810264,0.4 0.07308,0.005 0.617316,-0.76699 1.209419,-1.71498 z m -27.289267,-0.1275 c 2.14914,-0.64113 5.794481,-1.24201 8.390306,-1.38302 1.307984,-0.0711 2.426891,-0.2132 2.48646,-0.31588 0.05957,-0.10268 0.04632,-1.33151 -0.02943,-2.73074 l -0.13774,-2.54406 -7.477584,0.10978 c -4.112672,0.0604 -7.498166,0.1272 -7.523317,0.14849 -0.02515,0.0213 0.131978,0.72186 0.349179,1.55684 0.552042,2.12222 2.065897,5.56644 2.446642,5.56644 0.07059,0 0.743562,-0.18353 1.495488,-0.40785 z m 21.170873,-1.9117 c 0.626811,-1.60876 1.087557,-3.36594 1.305112,-4.97742 l 0.136139,-1.00841 -1.526015,0.14034 c -4.48861,0.41279 -6.107963,0.5299 -7.369239,0.53294 -0.765467,0.002 -1.44612,0.0971 -1.512561,0.21158 -0.06644,0.11453 -0.06005,1.39878 0.01421,2.85389 l 0.135002,2.64565 2.538811,0.24882 c 1.396344,0.13685 3.10492,0.37244 3.796832,0.52355 1.953643,0.42664 1.838003,0.4812 2.481718,-1.17094 z m -10.62399,-6.67851 c 0.134848,-0.165 0.06346,-1.73702 -0.275863,-6.07454 l -0.138768,-1.77384 -2.060052,-0.12595 c -2.617045,-0.16002 -6.781894,-0.97692 -9.298263,-1.823787 -1.073592,-0.36131 -2.006855,-0.598475 -2.073918,-0.527033 -0.06706,0.07144 -0.337856,0.99226 -0.601764,2.04627 -0.36528,1.45885 -0.504431,2.639 -0.582856,4.94323 -0.05666,1.66478 -0.04557,3.18637 0.02466,3.38132 0.11862,0.32931 0.650543,0.34655 7.494906,0.24292 4.051976,-0.0613 7.43234,-0.19121 7.511921,-0.28859 z m -16.437569,-2.41805 c 0,-2.63564 0.336277,-5.28639 0.9477,-7.470375 L 11.330478,15.872922 9.9547662,15.145147 C 9.1981252,14.74487 7.9187402,13.911256 7.1116912,13.29267 l -1.46736,-1.124701 -0.691056,1.151651 c -1.728936,2.881287 -2.901046,6.132692 -3.351086,9.295852 -0.363235,2.55303 -0.354685,3.03701 0.05774,3.26755 0.563296,0.31487 5.836803,1.1607 7.741682,1.2417 l 0.6290118,0.0268 z m 25.816112,1.9047 2.687836,-0.25435 -0.108221,-2.48813 c -0.104567,-2.40411 -0.409366,-4.38196 -1.020295,-6.620732 l -0.292034,-1.070165 -1.864437,0.817817 c -2.085265,0.91468 -4.817128,1.70757 -6.640538,1.92734 l -1.210046,0.14584 0.115093,1.36207 c 0.0633,0.74913 0.166146,2.24348 0.228542,3.32079 0.0624,1.0773 0.159001,2.27427 0.214673,2.65993 l 0.101223,0.70121 2.550184,-0.12364 c 1.402601,-0.068 3.759711,-0.23809 5.23802,-0.37798 z m 7.736857,-1.091 c 1.470648,-0.27471 2.725248,-0.55416 2.787996,-0.62101 0.213533,-0.22748 -0.35814,-4.45907 -0.84572,-6.26013 -0.504406,-1.863205 -2.184808,-5.855497 -2.571927,-6.110377 -0.121867,-0.08024 -0.546634,0.126957 -0.943927,0.460431 -0.397292,0.333475 -1.332007,1.000412 -2.077144,1.482084 -0.745137,0.481672 -1.386413,0.906211 -1.425056,0.94342 -0.03865,0.03721 0.15202,1.023645 0.423698,2.19208 0.608003,2.614882 0.904587,4.871112 0.904587,6.881532 v 1.53145 h 0.536791 c 0.295237,0 1.740051,-0.22476 3.210702,-0.49948 z M 25.74309,16.636183 C 25.632826,14.964689 24.751367,8.7670254 24.138437,5.3536214 l -0.600567,-3.344548 -0.520018,0.286474 c -1.961351,1.080495 -5.016606,4.281395 -6.935673,7.2663 -1.275113,1.9833016 -2.761345,4.8493406 -2.761345,5.3249546 0,0.768246 8.619939,2.79415 11.515752,2.70649 l 0.96771,-0.0293 z m 3.668739,0.501885 c 0.889957,-0.177564 2.097119,-0.467408 2.682584,-0.644096 1.593929,-0.481036 4.451467,-1.730123 4.451467,-1.945826 0,-0.399745 -1.641314,-3.650332 -2.559324,-5.0686836 -1.040761,-1.608009 -3.378536,-4.104883 -4.859927,-5.190671 -0.981376,-0.719302 -3.985389,-2.380308 -4.087312,-2.259993 -0.03333,0.03935 0.192379,1.507782 0.501578,3.26319 0.468596,2.66036 1.057845,6.7459996 1.62867,11.2926496 0.126387,1.006684 0.05672,0.989494 2.242264,0.55343 z M 12.712734,12.607025 c 1.713461,-3.5739086 4.212869,-7.1337826 6.446702,-9.1819476 1.535936,-1.408276 1.422602,-1.478195 -1.122492,-0.692488 -2.189827,0.676032 -4.43615,1.799426 -6.377317,3.189318 -1.563475,1.119462 -4.9192228,4.4491516 -4.9192228,4.8810236 0,0.131299 0.383829,0.573785 0.852953,0.983303 0.898258,0.784126 3.7396288,2.582602 4.0776838,2.581012 0.109024,-5.15e-4 0.577786,-0.792612 1.041693,-1.760221 z M 40.75542,11.959448 c 0.6653,-0.501061 1.209637,-0.991001 1.209637,-1.088755 0,-0.31185 -1.855973,-2.5547256 -2.831986,-3.4223546 -1.459392,-1.297327 -2.610356,-2.080001 -4.688821,-3.188472 -1.846523,-0.984775 -5.32861,-2.338851 -5.687116,-2.211544 -0.09595,0.03407 0.463267,0.522121 1.242711,1.084551 2.856574,2.061243 5.452596,5.375948 7.143476,9.1210806 l 0.767594,1.700146 0.817434,-0.541816 c 0.449589,-0.297999 1.36177,-0.951775 2.027071,-1.452836 z M 0.5470582,12.280922 c 0,-0.509872 1.397867,-3.0280546 2.672949,-4.8151756 1.501709,-2.104755 3.921476,-4.643772 4.425667,-4.643772 0.804626,0 0.501928,0.676869 -1.016561,2.273165 -1.68285,1.769076 -3.395234,4.10364 -4.53523,6.1830626 -0.551227,1.005474 -0.904054,1.440519 -1.168278,1.440519 -0.25685,0 -0.378547,-0.140746 -0.378547,-0.437799 z m 0.07091,-3.9925736 c -0.229637,-0.637512 2.194806,-4.22928 2.854763,-4.22928 0.695106,0 0.598749,0.57119 -0.293139,1.737703 -0.484443,0.633609 -1.078981,1.521716 -1.321197,1.973573 -0.44979,0.839086 -1.036511,1.084102 -1.240427,0.518004 z"
       id="path5503"
       inkscape:connector-curvature="0" />
  </g>
</svg>
