<?xml version="1.0" encoding="UTF-8" standalone="no"?>
<!-- Created with Inkscape (http://www.inkscape.org/) -->

<svg
   xmlns:dc="http://purl.org/dc/elements/1.1/"
   xmlns:cc="http://creativecommons.org/ns#"
   xmlns:rdf="http://www.w3.org/1999/02/22-rdf-syntax-ns#"
   xmlns:svg="http://www.w3.org/2000/svg"
   xmlns="http://www.w3.org/2000/svg"
   xmlns:sodipodi="http://sodipodi.sourceforge.net/DTD/sodipodi-0.dtd"
   xmlns:inkscape="http://www.inkscape.org/namespaces/inkscape"
   width="48"
   height="48"
   viewBox="0 0 48 48"
   version="1.1"
   id="SVGRoot"
   inkscape:version="0.92.4 (5da689c313, 2019-01-14)"
   sodipodi:docname="email.svg">
  <defs
     id="defs2241" />
  <sodipodi:namedview
     id="base"
     pagecolor="#ffffff"
     bordercolor="#666666"
     borderopacity="1.0"
     inkscape:pageopacity="0.0"
     inkscape:pageshadow="2"
     inkscape:zoom="11.313709"
     inkscape:cx="19.820341"
     inkscape:cy="26.649149"
     inkscape:document-units="px"
     inkscape:current-layer="layer1"
     showgrid="false"
     inkscape:window-width="1366"
     inkscape:window-height="705"
     inkscape:window-x="-8"
     inkscape:window-y="-8"
     inkscape:window-maximized="1"
     inkscape:grid-bbox="true" />
  <metadata
     id="metadata2244">
    <rdf:RDF>
      <cc:Work
         rdf:about="">
        <dc:format>image/svg+xml</dc:format>
        <dc:type
           rdf:resource="http://purl.org/dc/dcmitype/StillImage" />
        <dc:title />
      </cc:Work>
    </rdf:RDF>
  </metadata>
  <g
     inkscape:label="Layer 1"
     inkscape:groupmode="layer"
     id="layer1"
     transform="translate(0,32)">
    <path
       inkscape:connector-curvature="0"
       id="path2223"
       style="fill:#003561;fill-opacity:1;fill-rule:nonzero;stroke:none;stroke-width:1.20422363"
       d="m 38.803944,-1.0960965 -6.903728,-6.902696 6.903728,-6.9051075 z m -1.09583,2.9612243 H 10.714576 c -0.2577,0 -0.500949,-0.092724 -0.691215,-0.249278 l 8.047727,-8.0491334 3.80891,3.8090083 c 0.620169,0.6201827 1.445051,0.9609823 2.322919,0.9609823 0.877868,0 1.701546,-0.3407996 2.321714,-0.9609823 l 3.826975,-3.8270711 8.059765,8.0611746 C 38.221107,1.7687879 37.976653,1.8651278 37.708114,1.8651278 M 9.6006845,-14.9039 16.52368,-7.981934 9.6006845,-1.0599688 Z m 0.4274935,-2.710741 c 0.01325,-0.01084 0.02649,-0.02048 0.04094,-0.03131 0.0096,-0.0072 0.02048,-0.01325 0.03131,-0.02048 0.01445,-0.0096 0.0289,-0.01806 0.04335,-0.02649 0.01084,-0.0072 0.02287,-0.01325 0.03372,-0.01927 0.01445,-0.0084 0.0301,-0.01686 0.04575,-0.02408 0.01084,-0.0048 0.02288,-0.01084 0.03372,-0.01566 0.01686,-0.0072 0.03131,-0.01444 0.04696,-0.02047 0.01325,-0.0048 0.0253,-0.0084 0.03613,-0.01205 0.01686,-0.006 0.03372,-0.01205 0.05058,-0.01686 0.01205,-0.0037 0.02409,-0.0072 0.03613,-0.01084 0.01686,-0.0048 0.03493,-0.0084 0.05299,-0.01205 0.01084,-0.0025 0.02288,-0.0048 0.03492,-0.006 0.01927,-0.0037 0.03974,-0.006 0.06022,-0.0084 0.0096,-0.0012 0.01927,-0.0037 0.0301,-0.0037 0.0301,-0.0025 0.06022,-0.0048 0.09152,-0.0048 h 27.01161 c 0.03131,0 0.06261,0.0025 0.09273,0.0048 0.0096,0 0.01927,0.0025 0.02889,0.0037 0.02047,0.0025 0.04094,0.0048 0.06022,0.0084 l 0.03613,0.006 c 0.01686,0.0037 0.03492,0.0072 0.05178,0.01205 0.01325,0.0036 0.02409,0.0072 0.03613,0.01084 0.01686,0.0048 0.03372,0.01084 0.05058,0.01686 0.01205,0.0037 0.02409,0.0072 0.03613,0.01205 0.01565,0.0072 0.03131,0.01325 0.04696,0.02047 0.01205,0.0048 0.02288,0.01084 0.03492,0.01686 0.01565,0.006 0.0301,0.01445 0.04456,0.02288 0.01084,0.006 0.02288,0.01204 0.03372,0.01927 0.01565,0.0084 0.02891,0.01686 0.04336,0.02649 0.01084,0.0072 0.02167,0.01325 0.03131,0.02048 0.01445,0.01084 0.0277,0.02047 0.04215,0.03131 0.0072,0.006 0.01445,0.01204 0.02167,0.01806 l -13.42335,13.4236543 c -0.205919,0.2059253 -0.481682,0.320327 -0.773101,0.320327 -0.292622,0 -0.567183,-0.1144017 -0.774307,-0.320327 L 10.005298,-17.596577 c 0.0072,-0.006 0.01445,-0.01205 0.02287,-0.01806 M 24.000603,-31.75 C 10.883159,-31.75 0.25,-21.11657 0.25,-7.9987945 0.25,5.1177744 10.883159,15.75 24.000603,15.75 37.116841,15.75 47.75,5.1177744 47.75,-7.9987945 47.75,-21.11657 37.116841,-31.75 24.000603,-31.75" />
  </g>
</svg>
