<!DOCTYPE svg PUBLIC "-//W3C//DTD SVG 20010904//EN" "http://www.w3.org/TR/2001/REC-SVG-20010904/DTD/svg10.dtd">
<svg version="1.0" xmlns="http://www.w3.org/2000/svg" width="476px" height="321px" viewBox="0 0 4760 3210" preserveAspectRatio="xMidYMid meet">
<g id="layer101" fill="#0f192f" stroke="none">
<path d="M70 2766 l0 -206 98 0 c153 0 201 21 221 97 15 55 -1 112 -40 145 -35 29 -35 26 23 104 21 28 38 54 38 57 0 4 -20 7 -44 7 -43 0 -46 -2 -88 -62 -40 -58 -47 -63 -85 -66 l-42 -3 -3 63 -3 63 -37 3 -38 3 0 -205z m232 -23 c21 -19 24 -62 5 -87 -10 -14 -32 -20 -85 -24 l-72 -5 0 67 0 66 67 0 c48 0 72 -5 85 -17z"/>
<path d="M539 2947 c-47 -32 -74 -99 -64 -163 5 -39 15 -57 46 -86 51 -48 108 -58 172 -30 57 25 79 59 85 128 l4 54 -116 0 c-96 0 -116 3 -116 15 0 18 50 45 85 45 14 0 40 -7 57 -16 29 -15 32 -15 51 4 23 24 18 34 -27 56 -51 24 -136 21 -177 -7z m171 -169 c0 -6 -10 -22 -22 -35 -31 -33 -90 -32 -124 2 -14 14 -22 30 -19 35 9 15 165 13 165 -2z"/>
<path d="M860 2815 l0 -155 35 0 c28 0 35 4 35 20 0 18 2 18 38 -6 44 -31 101 -28 137 6 l23 22 32 -24 c45 -33 119 -32 154 1 37 35 48 82 44 191 l-3 95 -32 3 -33 3 0 -90 c0 -89 -11 -139 -33 -153 -24 -16 -68 -8 -92 17 -23 22 -25 31 -25 125 l0 100 -35 0 -35 0 0 -103 c0 -77 -4 -108 -16 -125 -19 -28 -63 -29 -95 -3 -22 18 -24 28 -27 125 l-4 106 -34 0 -34 0 0 -155z"/>
<path d="M1556 2961 c-9 -13 -136 -382 -136 -393 0 -5 17 -8 37 -6 l38 3 45 127 c25 69 48 129 51 132 3 3 25 -55 48 -130 l42 -135 32 3 c31 3 32 5 72 130 22 70 43 129 46 132 3 3 26 -54 51 -127 l45 -132 37 -3 c26 -2 36 1 36 11 0 8 -30 101 -66 206 l-66 191 -34 0 c-40 0 -41 -1 -84 -147 -18 -62 -37 -110 -41 -108 -4 3 -10 17 -14 32 -3 16 -20 72 -36 126 l-31 97 -33 0 c-19 0 -36 -4 -39 -9z"/>
<path d="M2123 2950 c-36 -24 -73 -92 -73 -136 0 -16 10 -50 23 -74 59 -119 229 -115 287 6 31 64 22 122 -30 177 -36 39 -41 41 -106 45 -57 2 -75 -1 -101 -18z m137 -55 c40 -21 56 -72 36 -118 -16 -40 -41 -57 -84 -57 -88 0 -124 125 -49 171 38 23 59 24 97 4z"/>
<path d="M2509 2947 c-68 -45 -91 -152 -46 -217 38 -57 71 -75 137 -75 44 0 66 6 87 21 98 73 99 214 1 274 -47 29 -134 27 -179 -3z m158 -69 c26 -24 32 -91 10 -119 -17 -23 -52 -39 -82 -39 -39 0 -85 50 -85 92 0 86 94 125 157 66z"/>
<path d="M2890 2944 c-17 -15 -37 -39 -45 -55 -21 -40 -19 -113 5 -158 36 -72 148 -103 201 -55 17 16 18 13 21 -57 l3 -74 35 0 35 0 0 210 0 210 -33 3 c-22 2 -34 -2 -38 -12 -5 -14 -8 -14 -27 -1 -12 9 -44 15 -73 15 -42 0 -59 -5 -84 -26z m140 -49 c39 -20 55 -74 35 -121 -25 -61 -88 -72 -136 -25 -58 58 -22 156 59 160 7 1 26 -6 42 -14z"/>
<path d="M3341 2948 c-25 -67 -131 -376 -131 -381 0 -4 17 -7 38 -7 l38 0 49 142 49 142 12 -40 c7 -21 27 -85 44 -142 l32 -103 31 3 c35 3 34 1 88 177 l32 103 50 -141 49 -141 32 0 c18 0 35 3 38 6 6 5 -39 139 -114 347 -21 57 -22 58 -57 55 l-36 -3 -40 -133 -40 -134 -43 136 -43 136 -35 0 c-27 0 -36 -5 -43 -22z"/>
<path d="M3860 2815 l0 -155 35 0 35 0 0 155 0 155 -35 0 -35 0 0 -155z"/>
<path d="M4040 2816 l0 -156 35 0 c24 0 35 5 35 15 0 12 6 12 37 -5 45 -24 62 -25 108 -6 53 23 65 57 65 191 l0 115 -35 0 -35 0 0 -105 c0 -92 -3 -108 -20 -125 -26 -26 -60 -25 -93 0 -25 20 -26 27 -29 123 l-3 102 -32 3 -33 3 0 -155z"/>
<path d="M4472 2950 c-68 -42 -92 -165 -45 -228 50 -67 118 -87 183 -53 l40 21 0 -75 0 -75 35 0 35 0 0 215 0 215 -35 0 c-24 0 -35 -5 -35 -15 0 -19 -9 -19 -34 0 -29 22 -105 19 -144 -5z m149 -69 c80 -80 -25 -211 -114 -141 -50 39 -46 118 6 151 44 27 74 24 108 -10z"/>
<path d="M3865 2600 c-37 -41 24 -97 63 -58 18 18 14 56 -7 68 -27 14 -35 13 -56 -10z"/>
<path d="M1491 2209 c-2 -228 90 -472 256 -676 l44 -54 -54 -82 c-99 -148 -220 -387 -205 -403 3 -2 11 10 18 28 42 107 139 277 218 381 l44 58 56 -49 c152 -130 338 -217 538 -252 113 -20 337 -8 456 24 118 31 267 101 326 152 l44 37 -7 -49 c-45 -324 -254 -707 -518 -949 -131 -119 -231 -190 -362 -254 -108 -53 -254 -101 -309 -101 -12 0 -16 -4 -11 -9 14 -13 162 12 259 44 331 108 660 380 876 725 157 249 240 515 240 766 0 203 -49 350 -151 451 -98 98 -218 143 -379 144 -282 1 -582 -147 -872 -429 l-67 -65 -38 28 c-188 141 -323 331 -382 540 l-20 70 0 -76z m1401 -215 c75 -18 123 -43 175 -91 82 -76 63 -166 -54 -252 -129 -95 -299 -150 -491 -158 -137 -6 -234 6 -356 44 l-78 25 33 35 c146 152 405 302 587 340 90 19 122 38 47 28 -236 -32 -453 -129 -658 -294 -78 -63 -90 -69 -107 -58 -11 6 -19 15 -18 18 6 16 132 121 215 180 97 69 254 147 350 173 75 20 203 35 258 29 22 -3 66 -11 97 -19z"/>
</g>
<g id="layer102" fill="#7f7f7f" stroke="none">
<path d="M1442 2140 c-76 -318 -101 -677 -67 -947 18 -138 55 -317 65 -306 4 4 26 60 50 123 23 63 63 155 88 205 41 83 44 92 34 130 -5 22 -24 96 -42 165 -49 192 -82 411 -102 690 -2 28 -8 15 -26 -60z"/>
</g>
<g id="layer103" fill="#3f84bb" stroke="none">
<path d="M1651 1152 c-13 -26 -57 -121 -97 -210 l-74 -164 35 -85 c107 -256 233 -445 394 -589 l69 -62 64 15 c122 28 428 158 428 181 0 4 -21 18 -47 31 -150 72 -349 241 -464 394 -92 122 -185 290 -254 459 l-31 78 -23 -48z"/>
<path d="M2240 930 l0 -150 110 0 110 0 0 113 0 113 -57 12 c-32 7 -82 23 -110 37 l-53 24 0 -149z"/>
<path d="M2717 1003 c-4 -3 -53 -7 -110 -8 l-102 -1 -3 -107 -3 -107 116 0 115 0 0 115 c0 63 -1 115 -3 115 -2 0 -7 -3 -10 -7z"/>
<path d="M2245 713 c12 -52 104 -144 188 -189 l27 -15 0 116 0 115 -111 0 -111 0 7 -27z"/>
<path d="M2507 733 c-10 -10 -8 -223 2 -223 14 0 113 69 153 108 35 34 68 87 68 111 0 12 -212 16 -223 4z"/>
</g>


</svg>