<?xml version="1.0" encoding="UTF-8" standalone="no"?>
<!-- Created with Inkscape (http://www.inkscape.org/) -->

<svg
   xmlns:dc="http://purl.org/dc/elements/1.1/"
   xmlns:cc="http://creativecommons.org/ns#"
   xmlns:rdf="http://www.w3.org/1999/02/22-rdf-syntax-ns#"
   xmlns:svg="http://www.w3.org/2000/svg"
   xmlns="http://www.w3.org/2000/svg"
   xmlns:sodipodi="http://sodipodi.sourceforge.net/DTD/sodipodi-0.dtd"
   xmlns:inkscape="http://www.inkscape.org/namespaces/inkscape"
   width="100px"
   height="100px"
   viewBox="0 0 100 100"
   version="1.1"
   id="SVGRoot"
   sodipodi:docname="part4.svg"
   inkscape:version="0.92.4 (5da689c313, 2019-01-14)">
  <defs
     id="defs58" />
  <sodipodi:namedview
     id="base"
     pagecolor="#ffffff"
     bordercolor="#666666"
     borderopacity="1.0"
     inkscape:pageopacity="0.0"
     inkscape:pageshadow="2"
     inkscape:zoom="3.6203867"
     inkscape:cx="9.4282647"
     inkscape:cy="60.387191"
     inkscape:document-units="px"
     inkscape:current-layer="layer1"
     showgrid="false"
     inkscape:window-width="1366"
     inkscape:window-height="705"
     inkscape:window-x="-8"
     inkscape:window-y="-8"
     inkscape:window-maximized="1"
     inkscape:grid-bbox="true" />
  <metadata
     id="metadata61">
    <rdf:RDF>
      <cc:Work
         rdf:about="">
        <dc:format>image/svg+xml</dc:format>
        <dc:type
           rdf:resource="http://purl.org/dc/dcmitype/StillImage" />
        <dc:title></dc:title>
      </cc:Work>
    </rdf:RDF>
  </metadata>
  <g
     inkscape:label="Layer 1"
     inkscape:groupmode="layer"
     id="layer1">
    <path
       style="fill:#81858e;stroke-width:0.18571471;fill-opacity:1"
       d="m 50.682113,99.643486 c -0.0594,-0.0598 -7.75683,-0.17678 -17.10543,-0.25998 -18.31198,-0.16297 -18.69999,-0.18378 -22.79144,-1.22195 -3.6859001,-0.93526 -5.5788501,-2.34222 -6.8355701,-5.0806 -0.82052,-1.78791 -1.9585,-6.29377 -2.4436,-9.67552 -0.75207005,-5.24279 -0.81373005,-6.92731 -0.83398005,-22.7849 -0.0126,-9.87723 -0.10823,-17.20512 -0.26746,-20.49753 -0.19745,-4.0826 -0.20371,-5.95781 -0.0308,-9.22389 0.25205,-4.76126 0.50359,-6.21406 1.38974005,-8.02675 1.13678,-2.32537 3.40079,-4.10266 6.12872,-4.81116 1.80807,-0.46959 5.2753901,-0.70069 8.4358001,-0.56224 l 2.8954,0.12683 5.61875,-3.44135 c 3.09032,-1.89275 8.73274,-5.3047596 12.53873,-7.5822496 3.80598,-2.27749 7.41249,-4.47762 8.01446,-4.88917 1.54803,-1.05834998 2.51446,-1.45822998 3.5357,-1.46293998 1.74614,-0.008 2.78919,0.90238998 4.60689,4.02120998 l 0.98472,1.68959 4.7198,-2.79688 c 4.13254,-2.44886998 4.8406,-2.80727998 5.6906,-2.88043998 0.55325,-0.0476 1.21136,0.0168 1.53013,0.14969 0.83081,0.34646 2.19562,1.96309998 3.19995,3.79040998 0.48869,0.88913 2.41114,4.02648 4.27212,6.9718896 1.86097,2.94541 3.47683,5.53072 3.59079,5.74514 0.19369,0.36443 0.41042,0.39721 3.32312,0.50256 6.9095,0.2499 9.40465,1.56986 10.64168,5.62953 0.45698,1.49968 0.48888,2.79062 0.24272,9.82261 l -0.15467,4.41871 0.50012,0.66013 c 0.76539,1.01026 1.53326,2.82753 1.89213,4.47804 0.25734,1.18354 0.32738,2.44735 0.33986,6.13313 l 0.0157,4.6424 0.93011,0.31829 c 1.46304,0.50066 2.01606,0.8489 2.83433,1.78478 1.3708,1.56784 1.5577,2.51724 1.64392,8.35058 0.10628,7.19212 -0.35309,10.95464 -1.58066,12.94648 -0.81616,1.32429 -1.31254,1.59181 -3.09274,1.66682 l -1.54214,0.0649 -0.0859,5.7116 c -0.0927,6.16128 -0.20415,7.02027 -1.18412,9.12607 -0.65961,1.4174 -2.55504,3.28378 -4.2255,4.16075 -2.86967,1.50654 -5.33869,1.94173 -12.50134,2.20356 -5.44661,0.19908 -24.6613,0.26234 -24.84065,0.0818 z m 20.68385,-2.12832 c 12.25791,-0.52092 15.0107,-1.12232 17.45333,-3.81301 1.57652,-1.73661 1.95303,-3.23612 2.15378,-8.57776 0.0616,-1.6398 0.16207,-3.84095 0.22319,-4.89145 l 0.11113,-1.91 h -1.22977 c -1.14306,0 -1.24225,0.033 -1.40658,0.46815 -0.37852,1.00231 -1.88315,1.03804 -2.1323,0.0506 -0.10712,-0.42451 -0.11734,-0.42571 -3.98227,-0.46782 -4.46685,-0.0487 -6.84809,-0.34989 -9.29746,-1.17605 -2.1571,-0.72758 -3.42473,-1.45914 -4.58555,-2.64639 -1.73798,-1.77755 -2.58258,-4.20935 -2.58258,-7.43595 0,-3.29411 0.80642,-6.11711 2.50058,-8.7537 1.55204,-2.41544 3.15257,-3.64569 5.54405,-4.26146 1.37836,-0.35491 2.10611,-0.39767 14.86031,-0.87313 l 3.19281,-0.11902 -0.004,-4.30309 c -0.004,-4.66285 -0.18076,-6.06185 -0.995,-7.85241 -0.63515,-1.39672 -1.32679,-2.22278 -2.56177,-3.05962 -1.15167,-0.78039 -2.72344,-1.36383 -4.52852,-1.68098 -4.07985,-0.71683 -20.80361,-1.09642 -35.03754,-0.79527 -5.28023,0.11172 -9.73129,0.10886 -12.40106,-0.008 -2.2905,-0.10023 -9.78666,-0.19713 -16.65813,-0.21533 -13.8381101,-0.0366 -13.8086601,-0.0344 -16.1491401,-1.26234 -0.63625,-0.33382 -1.21928,-0.63551 -1.29563,-0.67041 -0.0763,-0.0349 -0.13882,1.02423 -0.13882,2.35361 v 2.41707 l 1.06427,0.63436 c 1.22947,0.73283 1.46135,1.33694 0.77745,2.02546 -0.31963,0.32179 -0.53973,0.3823 -1.07641,0.29589 l -0.67463,-0.10859 0.0419,0.78685 c 0.50506,9.47698 0.56392,15.38996 0.23888,23.9965 -0.28777,7.61966 0.078,13.54545 1.18915,19.26633 0.56962,2.93268 0.81671,3.8298 1.05483,3.8298 0.10726,0 0.39485,0.15824 0.63907,0.35164 0.24422,0.1934 0.7571,0.41054 1.13973,0.48253 0.92316,0.17368 1.15843,0.3987 1.15843,1.10796 0,0.79674 -0.29153,1.03933 -1.249,1.03933 h -0.8045 l 0.54414,0.79622 c 1.24253,1.81816 2.94681,2.96641 5.3039901,3.57356 3.12103,0.80388 4.20802,0.86823 17.76868,1.052 7.22778,0.0979 14.89052,0.24565 17.02831,0.32823 5.68954,0.21978 19.88825,0.23446 24.80211,0.0256 z m -11.93345,-4.25074 c -1.01984,-0.20202 -1.39216,-1.40676 -0.62389,-2.01876 0.17052,-0.13582 0.6739,-0.17738 1.37433,-0.11344 0.6079,0.0555 1.86565,-0.009 2.795,-0.14293 1.67331,-0.24146 1.69304,-0.23971 2.03114,0.18066 0.66217,0.82327 0.3006,1.60745 -0.86661,1.87948 -1.01468,0.23648 -3.92975,0.36954 -4.70997,0.21499 z m -46.5551,-0.16902 c -0.60847,-0.15058 -0.83291,-0.43673 -0.83291,-1.06193 0,-0.91311 0.25799,-1.03933 2.12437,-1.03933 1.99234,0 2.50289,0.24163 2.50289,1.18451 0,0.3324 -0.1,0.70499 -0.22211,0.82798 -0.21937,0.22085 -2.78124,0.28451 -3.57224,0.0888 z m 9.6247,-1e-4 c -1.80347,-0.0494 -2.07299,-0.10046 -2.3599,-0.44693 -0.41045,-0.49563 -0.41467,-1.16355 -0.01,-1.57103 0.28041,-0.28231 0.62176,-0.3018 3.1928,-0.18227 1.58336,0.0736 2.98294,0.22013 3.11019,0.32561 0.12725,0.10548 0.23136,0.51397 0.23136,0.90777 0,0.84937 -0.36435,1.12149 -1.42228,1.06221 -0.38844,-0.0218 -1.62245,-0.0647 -2.74225,-0.0954 z m 9.56788,-0.028 c -0.54024,-0.0709 -1.05953,-0.25188 -1.15398,-0.40222 -0.24457,-0.38932 -0.21783,-1.43739 0.0408,-1.59831 0.12,-0.0747 1.37407,-0.15273 2.78682,-0.17349 2.78294,-0.0409 3.103,0.0574 3.103,0.95275 0,0.68703 -0.62048,1.19791 -1.45489,1.19791 -0.39299,0 -1.08014,0.0342 -1.527,0.0761 -0.44685,0.0418 -1.25449,0.0181 -1.79473,-0.0527 z m 18.57635,-0.25116 c -0.3878,-0.55741 -0.36265,-1.00157 0.0821,-1.44927 0.32705,-0.32926 0.61696,-0.37268 2.48822,-0.37268 1.97891,0 2.13697,0.0272 2.40617,0.41414 0.36882,0.53012 0.36771,1.1562 -0.003,1.52913 -0.23175,0.23331 -0.7374,0.29282 -2.48822,0.29282 -2.06088,0 -2.21527,-0.0257 -2.48551,-0.41414 z m 18.53753,0.24225 c -1.71317,-0.11333 -1.974,-0.25641 -1.97961,-1.08591 -10e-4,-0.2306 0.172,-0.59528 0.38568,-0.8104 0.372,-0.37452 0.50369,-0.38565 3.10026,-0.26198 2.15609,0.10269 2.75916,0.19014 2.94312,0.42675 0.34193,0.4398 0.28136,1.10774 -0.13882,1.53075 -0.39924,0.40195 -0.91016,0.42574 -4.31063,0.20079 z m 6.97159,-0.0388 c -0.56832,-0.73481 -0.38517,-1.76624 0.34022,-1.91587 1.71695,-0.35417 4.06053,-0.52903 4.48442,-0.33459 0.59554,0.27318 0.7894,1.02089 0.41417,1.59745 -0.23404,0.3596 -0.50251,0.45934 -1.50113,0.55766 -0.66886,0.0659 -1.73906,0.17165 -2.37823,0.23511 -0.87198,0.0866 -1.21139,0.0517 -1.35945,-0.13976 z m -35.13382,-0.38976 c -0.37468,-0.53854 -0.3643,-0.9474 0.0358,-1.40906 0.26995,-0.31151 0.63983,-0.39271 2.22022,-0.48738 1.73569,-0.10398 1.92773,-0.082 2.26736,0.25996 0.39338,0.39603 0.47725,1.03405 0.19497,1.4833 -0.10844,0.1726 -0.66261,0.32085 -1.52416,0.40774 -2.40547,0.24262 -2.87426,0.20526 -3.19417,-0.25456 z m 42.02482,-0.81231 c -0.18993,-0.4983 -0.12474,-1.32724 0.11901,-1.51322 0.12726,-0.0971 0.58419,-0.27808 1.01542,-0.4022 0.50662,-0.14582 0.96508,-0.45407 1.29563,-0.87116 0.41092,-0.51848 0.64087,-0.64549 1.16865,-0.64549 0.78329,0 1.10129,0.27183 1.10129,0.94142 0,1.2997 -1.98164,2.7854 -3.71519,2.7854 -0.62483,0 -0.90435,-0.0837 -0.98481,-0.29475 z m 3.36679,-5.98127 c -0.48193,-0.12771 -0.55014,-0.62368 -0.33265,-2.41886 0.21381,-1.76482 0.42717,-2.11522 1.28478,-2.11006 1.00599,0.006 1.0963,0.2701 0.8748,2.55764 -0.1221,1.26109 -0.21998,1.58589 -0.54748,1.81683 -0.39678,0.27979 -0.67823,0.31377 -1.27945,0.15445 z m -0.49245,-32.99538 c -0.34353,-0.29025 -0.39156,-0.561 -0.43697,-2.46284 l -0.051,-2.13674 0.49192,-0.24103 c 0.63844,-0.31284 1.40901,-0.0363 1.52757,0.54817 0.0475,0.23422 0.13591,1.19871 0.19644,2.14329 0.10009,1.56169 0.0759,1.75179 -0.2663,2.09633 -0.46192,0.46505 -0.95278,0.48278 -1.46167,0.0528 z m -0.8762,-8.8405 c -0.27437,-0.44146 -0.73653,-1.0781 -1.02703,-1.41475 -0.88228,-1.02243 -0.58684,-2.2762 0.53637,-2.2762 0.57733,0 1.75487,1.20196 2.45067,2.50148 0.43014,0.80335 0.44223,0.8957 0.17928,1.36949 -0.2138,0.38523 -0.44618,0.5219 -0.96121,0.56535 -0.62352,0.0526 -0.72015,-0.009 -1.17808,-0.74537 z m -37.15439,-2.56044 c -1.69832,-0.0895 -2.04538,-0.161 -2.26736,-0.46734 -0.35272,-0.4868 -0.33057,-1.12662 0.0523,-1.51212 0.27259,-0.27444 0.62121,-0.30466 2.62006,-0.22713 2.56539,0.0995 2.80331,0.21701 2.80331,1.38466 0,0.61288 -0.42304,1.03687 -0.95956,0.96168 -0.13393,-0.0188 -1.14589,-0.0816 -2.24879,-0.13975 z M 8.0734729,41.129806 c -0.31565,-0.31777 -0.37446,-1.13654 -0.11168,-1.55466 0.18348,-0.29193 1.92125,-0.54459 3.8553201,-0.56054 1.0536,-0.009 1.17967,0.0322 1.36539,0.44254 0.25308,0.5592 0.0757,1.34498 -0.35355,1.56673 -0.17695,0.0914 -1.25496,0.21741 -2.39558,0.28003 -1.7290301,0.0949 -2.1214301,0.066 -2.3599001,-0.1741 z m 9.2923801,0.10518 c -0.39955,-0.24511 -0.43659,-1.34452 -0.0581,-1.72553 0.1524,-0.15343 0.84324,-0.32138 1.61954,-0.39372 0.74457,-0.0694 1.85851,-0.17455 2.47541,-0.2337 1.2857,-0.12327 1.74726,0.15123 1.74726,1.03914 0,0.80415 -0.47849,1.07651 -2.12854,1.21154 -0.8144,0.0666 -1.89717,0.16164 -2.40617,0.21109 -0.509,0.0494 -1.07121,5.6e-4 -1.24936,-0.10882 z m 9.77674,-0.10033 c -0.37043,-0.37294 -0.37155,-0.99901 -0.003,-1.52913 0.26437,-0.38 0.43749,-0.41414 2.09985,-0.41414 1.5201,0 1.86103,0.0549 2.11804,0.34076 0.40455,0.45005 0.3893,1.20295 -0.0322,1.58694 -0.47821,0.4357 -3.75358,0.4479 -4.18301,0.0156 z m 9.18577,0.0692 c -0.36917,-0.37166 -0.27767,-1.59675 0.1359,-1.81959 0.44176,-0.23802 4.44585,-0.25153 4.81526,-0.0163 0.40196,0.256 0.34619,1.48682 -0.0816,1.80177 -0.45958,0.33833 -4.53895,0.36687 -4.86951,0.0341 z m 19.29187,-0.16374 c -0.4221,-0.46933 -0.33629,-1.42396 0.15187,-1.6894 0.61796,-0.33602 3.95882,-0.24633 4.51605,0.12125 0.48847,0.32222 0.61144,1.38986 0.1997,1.73388 -0.1414,0.11815 -1.10746,0.18307 -2.41922,0.16258 -1.72345,-0.0269 -2.2396,-0.0961 -2.4484,-0.32831 z m 8.82148,-0.15492 c -0.4585,-0.4616 -0.50186,-1.1787 -0.096,-1.58734 0.23976,-0.24138 0.8023,-0.29282 3.20206,-0.29282 3.18347,0 3.35543,0.0532 3.35543,1.03933 0,0.98663 -0.31541,1.09673 -3.34304,1.16693 -2.56884,0.0596 -2.75472,0.0401 -3.11849,-0.3261 z m 10.69435,0.0192 c -0.42489,-0.29907 -0.45587,-1.20309 -0.0551,-1.60661 0.41923,-0.42206 4.43784,-0.42425 5.03558,-0.003 0.53473,0.37707 0.5928,1.67659 0.0822,1.83974 -0.64598,0.20641 -4.70457,0.0217 -5.06273,-0.23039 z m 16.49729,35.33104 c 2.27319,0.0716 2.82891,-0.0428 3.62413,-0.74573 1.3621,-1.20402 1.76626,-2.67377 2.21847,-8.06771 0.34027,-4.0587 0.28054,-6.68862 -0.18684,-8.22714 -0.45989,-1.51387 -1.34109,-2.67477 -2.48408,-3.27258 -0.98613,-0.51576 -1.01687,-0.51926 -4.53471,-0.51523 -1.94802,0.002 -5.92587,0.12353 -8.83967,0.26955 -5.89831,0.29559 -6.75094,0.46622 -8.64112,1.72933 -2.21531,1.48038 -3.93041,4.68609 -4.49553,8.40262 -0.57084,3.75415 1.27871,7.24974 4.73229,8.94392 2.85227,1.3992 5.37996,1.72857 11.94381,1.55633 2.69769,-0.0708 5.69616,-0.1038 6.66325,-0.0734 z m -15.82522,-3.38045 c -1.87922,-0.62748 -3.17473,-1.69145 -4.00609,-3.29007 -0.38113,-0.73288 -0.43608,-1.09678 -0.43608,-2.88828 0,-1.86527 0.048,-2.15432 0.53297,-3.21146 0.64672,-1.40964 1.93051,-2.6769 3.40611,-3.36227 0.84966,-0.39464 1.41023,-0.50642 2.84278,-0.56684 1.76691,-0.0745 1.79741,-0.0684 3.10971,0.62585 0.74146,0.39226 1.60588,1.03114 1.96219,1.45022 2.67759,3.1493 1.21627,9.06687 -2.69179,10.90026 -1.21944,0.57209 -3.53018,0.73982 -4.7198,0.34259 z m 3.73542,-2.37474 c 2.18791,-1.0663 3.49768,-4.47859 2.48206,-6.4664 -0.77203,-1.51105 -2.50413,-2.57006 -3.92622,-2.40049 -2.87232,0.34248 -5.30757,3.64731 -4.60985,6.25596 0.62829,2.34904 3.79187,3.71341 6.05401,2.61093 z m 14.45891,-3.06576 c -0.49962,-1.10396 0.61409,-2.15753 1.596,-1.50982 0.35205,0.23223 0.47706,0.47472 0.47706,0.92534 0,0.79589 -0.28514,1.05784 -1.15153,1.05784 -0.57783,0 -0.74652,-0.0866 -0.92153,-0.47336 z m 0.61733,-3.31632 c -0.11299,-0.13706 -0.29517,-0.9127 -0.40486,-1.72365 -0.37252,-2.75428 -1.05518,-3.43024 -3.46472,-3.43076 -1.26155,-1.8e-4 -1.3593,-0.0299 -1.5601,-0.47365 -0.14511,-0.32061 -0.15756,-0.63628 -0.0386,-0.97829 0.24543,-0.70548 1.17794,-0.91354 2.94551,-0.65717 2.7971,0.40568 3.81686,1.61005 4.20728,4.96889 0.19118,1.64477 0.18061,1.81865 -0.13169,2.16608 -0.38599,0.4294 -1.24614,0.5006 -1.55284,0.12855 z m -5.30405,-30.0101 c -0.084,-0.90262 -0.018,-2.36161 0.19182,-4.23839 0.18273,-1.63454 0.27319,-3.36596 0.21094,-4.03714 -0.23117,-2.49234 -1.64345,-4.45323 -3.78949,-5.2616 -1.34012,-0.50479 -2.28454,-0.67677 -4.61444,-0.8403 -1.55532,-0.10917 -1.89512,-0.0869 -1.88572,0.12377 0.006,0.14131 0.41013,0.88583 0.8974,1.65449 l 0.88594,1.39756 2.01777,0.13657 c 1.10978,0.0751 2.25804,0.2367 2.55168,0.35909 0.85065,0.35453 1.25462,1.52501 1.36832,3.96459 0.0672,1.441 0.18536,2.19985 0.39257,2.52058 0.23628,0.3657 0.28908,0.91455 0.26004,2.70298 l -0.0365,2.2441 0.68426,0.30716 c 0.37634,0.16894 0.75383,0.31522 0.83887,0.32506 0.085,0.01 0.097,-0.60149 0.0265,-1.35852 z m -3.79037,-0.7497 c 0,-0.99705 -0.36283,-1.77221 -0.99179,-2.1188 -0.54151,-0.29842 -2.87762,-0.32855 -33.99029,-0.43845 -35.76016,-0.12632 -43.5777401,-0.27625 -45.9024001,-0.88037 -0.7635,-0.1984 -1.42138,-0.32898 -1.46195,-0.29017 -0.17074,0.16336 0.98323,1.56023 1.74231,2.10905 1.1208,0.81033 2.61805,1.29547 4.75235,1.53984 1.8041501,0.20657 2.0782501,0.19491 9.8670601,-0.4199 1.91216,-0.15093 6.09741,-0.14373 15.96963,0.0275 7.3581,0.12761 16.02033,0.18428 19.2494,0.12593 6.44482,-0.11645 24.97071,0.29155 27.34151,0.60216 0.8144,0.10669 1.85554,0.26335 2.31363,0.34813 0.4581,0.0848 0.89538,0.12137 0.97172,0.0813 0.0764,-0.0401 0.13882,-0.34885 0.13882,-0.68622 z m -16.43012,-4.81968 0.69074,-0.042 -1.57522,-1.95658 c -0.86637,-1.07612 -2.04642,-2.67648 -2.62234,-3.55635 l -1.04711,-1.59976 -1.30748,0.46217 c -1.57812,0.55783 -3.57935,0.72178 -5.14712,0.42169 -0.63679,-0.12189 -2.26638,-0.60031 -3.6213,-1.06316 l -2.46349,-0.84153 -3.82958,2.4108 c -2.10627,1.32594 -5.16223,3.14863 -6.79103,4.05043 -1.62879,0.9018 -3.01977,1.6889 -3.09107,1.74913 -0.11687,0.0987 29.1527,0.0656 30.805,-0.0348 z m 12.59136,-0.10947 c 0.13271,-0.13324 -3.14507,-5.59218 -8.12724,-13.53543 -1.22137,-1.94727 -2.66286,-4.33709 -3.20332,-5.3107196 -2.14695,-3.86772 -3.67892,-5.83031 -5.0866,-6.51636 -0.76003,-0.37041 -0.85745,-0.37777 -1.48816,-0.11246 -0.37118,0.15614 -1.3152,0.73611 -2.09781,1.28883 -0.78262,0.55272 -6.83683,4.2743 -13.45381,8.2701596 -12.24313,7.3934 -25.58499,15.58349 -25.9034,15.90118 -0.10997,0.10973 1.93518,0.17523 5.46017,0.17488 l 5.636,-5.6e-4 3.51672,-1.92928 c 4.6093,-2.52871 8.25259,-4.68663 12.15903,-7.20182 1.74968,-1.12655 3.33698,-2.04827 3.52733,-2.04827 0.19036,0 0.7839,0.41685 1.31899,0.92632 1.33936,1.27527 2.78882,1.91364 4.58242,2.01817 1.68848,0.0984 2.85982,-0.14588 4.93976,-1.03018 1.10024,-0.46778 1.63934,-0.60854 1.88687,-0.49265 0.1906,0.0892 1.00898,1.16848 1.81865,2.39833 0.80966,1.22985 2.39682,3.35784 3.52702,4.72886 1.1302,1.37102 2.05483,2.54497 2.05473,2.60878 -1.8e-4,0.16671 8.76402,0.0315 8.93265,-0.13781 z m -24.69482,-10.14461 c -0.62968,-0.63393 -2.93177,-4.59405 -2.93177,-5.0433 0,-0.60941 0.7398,-1.13678 1.37098,-0.97729 0.66966,0.16921 3.50255,4.68506 3.34432,5.33112 -0.14954,0.61059 -0.2669,0.71675 -0.94271,0.85283 -0.37937,0.0764 -0.65609,0.0226 -0.84082,-0.16336 z m 3.5677,-2.3089 c -0.54136,-0.10983 -2.08576,-1.63449 -2.53011,-2.49778 -0.81863,-1.59041 -0.68427,-2.92889 0.38928,-3.8778396 1.25892,-1.11282 3.05268,-0.58572 4.30769,1.2658396 1.6295,2.40404 1.11396,4.80702 -1.09684,5.11248 -0.34574,0.0478 -0.82724,0.0466 -1.07002,-0.003 z m 0.90414,-2.57635 c 0,-0.34344 -0.75604,-1.57936 -1.18576,-1.9384 -0.22971,-0.19193 -0.36479,-0.20506 -0.51842,-0.0504 -0.15363,0.15467 -0.0305,0.47794 0.47246,1.24059 0.65359,0.99104 1.23172,1.34222 1.23172,0.74821 z m 3.30676,-0.73147 c -0.36633,-0.25062 -0.98403,-0.93794 -1.37266,-1.52739 -1.13406,-1.7200896 -1.09919,-3.6874596 0.0801,-4.5165496 1.58283,-1.11283 3.48132,-0.26644 4.64042,2.06881 0.61423,1.2375 0.73605,2.5108396 0.31354,3.2773796 -0.65138,1.18176 -2.45219,1.52495 -3.66136,0.69775 z m 1.69068,-2.11664 c 0,-0.46955 -1.04867,-2.0862296 -1.35325,-2.0862296 -0.43948,0 -0.49068,0.21803 -0.19151,0.81557 0.3216,0.64233 1.15853,1.6068596 1.3943,1.6068596 0.0828,0 0.15046,-0.15129 0.15046,-0.3362 z m 18.49059,16.96715 c -0.0303,-1.75972 -0.14533,-1.97809 -1.14525,-2.17412 -0.47961,-0.094 -0.92103,-0.12161 -0.98094,-0.0613 -0.13482,0.13572 1.77176,3.30688 1.98816,3.30688 0.0861,0 0.14817,-0.48216 0.13803,-1.07147 z m -56.98939,-5.3707 c 5.54809,-3.4375 13.31169,-8.19488 17.25246,-10.57196 3.94077,-2.3770796 7.16828,-4.3894596 7.17225,-4.4719496 0.0147,-0.30599 -1.45854,-2.30865 -2.18338,-2.96792 -1.69503,-1.54171 -2.92434,-1.30779 -6.60119,1.25614 -0.9162,0.63888 -6.03858,3.79941 -11.38306,7.0233996 -12.63599,7.62251 -24.8021101,15.10988 -24.8021101,15.26392 0,0.2338 4.9595401,0.61194 9.0694301,0.69149 l 1.38818,0.0269 z m -22.3140801,3.81255 c 0.66758,-0.4214 1.21378,-0.79665 1.21378,-0.83388 0,-0.1388 -1.23011,0.16692 -1.98972,0.4945 -0.72508,0.31269 -0.96896,0.67354 -0.66324,0.98133 0.17124,0.17239 0.0958,0.20604 1.43918,-0.64195 z m 0.52668,-2.58886 c 0.79278,-0.19114 2.25037,-0.45284 3.23908,-0.58157 1.7169501,-0.22354 1.8848801,-0.28773 3.7410901,-1.43017 2.95642,-1.81958 2.95886,-1.77591 -0.0925,-1.65673 -2.94865,0.11518 -4.1928401,0.34042 -5.6452601,1.02197 -1.47892,0.694 -4.30439,3.6251 -3.00772,3.12016 0.17815,-0.0694 0.97256,-0.28252 1.76535,-0.47366 z"
       id="path893"
       inkscape:connector-curvature="0" />
  </g>
</svg>
