<?xml version="1.0" encoding="UTF-8" standalone="no"?>
<!-- Created with Inkscape (http://www.inkscape.org/) -->

<svg
   xmlns:dc="http://purl.org/dc/elements/1.1/"
   xmlns:cc="http://creativecommons.org/ns#"
   xmlns:rdf="http://www.w3.org/1999/02/22-rdf-syntax-ns#"
   xmlns:svg="http://www.w3.org/2000/svg"
   xmlns="http://www.w3.org/2000/svg"
   xmlns:sodipodi="http://sodipodi.sourceforge.net/DTD/sodipodi-0.dtd"
   xmlns:inkscape="http://www.inkscape.org/namespaces/inkscape"
   width="100px"
   height="100px"
   viewBox="0 0 100 100"
   version="1.1"
   id="SVGRoot"
   inkscape:version="0.92.4 (5da689c313, 2019-01-14)"
   sodipodi:docname="part1.svg">
  <defs
     id="defs58" />
  <sodipodi:namedview
     id="base"
     pagecolor="#ffffff"
     bordercolor="#666666"
     borderopacity="1.0"
     inkscape:pageopacity="0.0"
     inkscape:pageshadow="2"
     inkscape:zoom="3.6203867"
     inkscape:cx="9.4282647"
     inkscape:cy="60.387191"
     inkscape:document-units="px"
     inkscape:current-layer="layer1"
     showgrid="false"
     inkscape:window-width="1366"
     inkscape:window-height="705"
     inkscape:window-x="-8"
     inkscape:window-y="-8"
     inkscape:window-maximized="1"
     inkscape:grid-bbox="true" />
  <metadata
     id="metadata61">
    <rdf:RDF>
      <cc:Work
         rdf:about="">
        <dc:format>image/svg+xml</dc:format>
        <dc:type
           rdf:resource="http://purl.org/dc/dcmitype/StillImage" />
        <dc:title></dc:title>
      </cc:Work>
    </rdf:RDF>
  </metadata>
  <g
     inkscape:label="Layer 1"
     inkscape:groupmode="layer"
     id="layer1">
    <path
       style="fill:#81858e;stroke-width:0.14445329;fill-opacity:1"
       d="m 36.190471,99.663579 c -2.39178,-0.25698 -4.28553,-0.83378 -6.5672,-2.00022 -2.70849,-1.38464 -4.68295,-2.95402 -6.54734,-5.2041 -3.35408,-4.04795 -6.68808,-9.31656 -11.82775,-18.69099 -6.5233002,-11.89807 -9.4130902,-18.31448 -10.66741016,-23.68564 -0.28401,-1.21617 -0.32699,-1.77406 -0.33066,-4.29212 -0.005,-3.11674 0.15737,-4.39145 0.85317996,-6.71683 0.73303,-2.44974 1.97177,-4.78577 3.60391,-6.79628 1.90385,-2.34522 5.7882202,-5.24162 10.2495502,-7.64264 2.06645,-1.11213 2.69914,-1.21568 3.68817,-0.60366 0.58738,0.36347 1.33102,1.67277 10.16232,17.89252 1.25713,2.30888 1.39589,2.86529 0.97473,3.90876 -0.2761,0.68409 -0.61384,0.95891 -2.93583,2.38888 -3.60604,2.22074 -5.25034,2.98651 -7.19248,3.34962 -0.4572,0.0855 -0.85002,0.1752 -0.87293,0.19938 -0.14273,0.15069 2.79241,6.00866 5.14709,10.27259 0.67621,1.22449 1.97291,3.59299 2.88157,5.26334 1.92125,3.53175 2.30557,4.19601 4.19131,7.24438 l 1.40209,2.26653 1.02965,-1.17008 c 1.19954,-1.36313 2.58538,-2.39758 5.89151,-4.3977 2.52061,-1.5249 3.1351,-1.74247 4.03541,-1.42878 0.26605,0.0927 0.67607,0.38435 0.91116,0.64812 0.31885,0.35775 9.7185,17.34633 10.70988,19.35667 0.22532,0.45689 0.19865,1.6151 -0.0488,2.12033 -0.26479,0.54057 -1.05525,1.21343 -2.74368,2.33547 -6.33132,4.20746 -11.31793,5.885241 -15.99743,5.38245 z m 4.58045,-3.19779 c 0.596,-0.12863 1.55813,-0.40109 2.13806,-0.60548 1.37681,-0.48524 5.09924,-2.38159 5.03827,-2.5667 -0.16178,-0.49116 -9.9164,-17.66294 -10.03544,-17.66612 -0.28939,-0.008 -2.33024,1.86688 -2.87624,2.64194 -0.30631,0.43482 -0.62572,1.06031 -0.7098,1.38998 -0.22845,0.89566 -0.68808,1.30739 -1.4595,1.30739 -0.58227,0 -0.70032,-0.0679 -1.39764,-0.8041 -1.49709,-1.5805 -3.93928,-5.50903 -7.61972,-12.25714 -1.22437,-2.2449 -2.88114,-5.28386 -3.68171,-6.75325 -2.72895,-5.00882 -4.81378,-9.79624 -4.81378,-11.05396 0,-0.6693 0.34201,-1.26848 0.85111,-1.49111 0.36067,-0.15772 0.57165,-0.15863 1.13976,-0.005 0.43583,0.11792 0.98689,0.15041 1.47008,0.0867 0.79112,-0.10435 2.40065,-0.62832 3.04011,-0.98967 l 0.3574,-0.20194 -4.9504,-8.79208 c -2.72272,-4.83565 -4.98923,-8.83308 -5.03669,-8.88318 -0.0475,-0.0501 -0.64405,0.31541 -1.32577,0.81224 -4.8352102,3.52391 -7.1055002,7.19771 -7.7924102,12.60978 -0.24336,1.9174 -0.0823,4.95553 0.35666,6.72865 1.17678,4.75318 4.17558,11.23756 10.6957102,23.12759 5.2253,9.5288 9.30773,15.76288 12.25134,18.70845 2.21345,2.21493 5.54217,4.02446 8.57246,4.66009 1.36731,0.28681 4.45239,0.28514 5.78814,-0.003 z m 10.61969,-5.19945 c 0.44588,-0.29444 0.79186,-0.58333 0.76885,-0.64197 -0.13056,-0.33258 -9.46264,-17.33515 -9.60469,-17.49925 -0.14154,-0.1635 -0.29052,-0.13333 -0.85752,0.17369 -0.37743,0.20437 -0.80731,0.4675 -0.95531,0.58475 -0.25596,0.20277 -0.0263,0.64483 4.70975,9.06409 2.73836,4.86801 5.01245,8.85163 5.05353,8.85248 0.0411,0.001 0.43951,-0.23935 0.88539,-0.53379 z m -24.89399,-46.31985 c 0.4969,-0.32806 0.51668,-0.36896 0.32899,-0.68016 -0.10983,-0.18211 -2.29881,-4.17156 -4.86441,-8.86544 -2.56559,-4.69388 -4.6866,-8.55785 -4.71334,-8.58659 -0.0267,-0.0288 -0.61908,0.26527 -1.3163,0.65336 -1.20827,0.67257 -1.25975,0.72126 -1.09864,1.0392 0.093,0.18346 2.35161,4.21073 5.01922,8.94948 l 4.85019,8.61592 0.6328,-0.38835 c 0.34804,-0.2136 0.87071,-0.54543 1.16149,-0.73742 z m 62.83931,38.49036 -6.50504,-3.01134 -1.50857,0.41691 c -3.22207,0.89047 -4.70084,1.07652 -8.60834,1.0831 -4.02772,0.007 -5.43701,-0.16192 -8.67737,-1.03869 -7.52835,-2.03699 -13.692,-6.81988 -16.66203,-12.92945 -1.60347,-3.29846 -2.23909,-6.59177 -1.93318,-10.01635 0.21228,-2.37644 0.63757,-3.99519 1.77482,-6.75531 0.0396,-0.0962 -0.1415,-0.24446 -0.41502,-0.33976 -0.47331,-0.16491 -0.64893,-0.0807 -7.08889,3.39886 -3.63196,1.96238 -6.73635,3.56797 -6.89865,3.56797 -0.76049,0 -1.44195,-0.72338 -1.42624,-1.51397 0.004,-0.18773 0.78496,-3.41025 1.73607,-7.16117 l 1.72929,-6.81986 -0.83468,-1.18846 c -2.93922,-4.18499 -4.47822,-8.687 -4.7038,-13.75986 -0.57615,-12.95697 9.01973,-24.4023303 22.45183,-26.77912029 1.86334,-0.32972 5.90859,-0.44752 7.88358,-0.22957 14.55527,1.60619999 25.32295,14.03835029 24.17833,27.91580029 -0.25355,3.07413 -1.09091,6.30426 -2.28358,8.80909 -0.22743,0.47765 -0.39356,0.88297 -0.36916,0.90072 0.0244,0.0177 0.8668,0.31658 1.87202,0.66409 4.80647,1.66164 9.31296,4.70739 12.05263,8.14587 2.34185,2.93919 3.70233,5.81528 4.40371,9.30957 0.32134,1.60097 0.32976,4.9098 0.0168,6.61123 -0.62057,3.37394 -2.16111,6.66155 -4.43391,9.46226 l -0.80759,0.99517 1.73606,5.86271 c 1.58577,5.35522 1.72327,5.90948 1.58839,6.40293 -0.17507,0.64049 -0.66252,1.02019 -1.30059,1.0131 -0.28507,-0.003 -2.95186,-1.15781 -6.9669,-3.01647 z m 3.2832,-5.83633 c -0.74103,-2.5181 -1.34732,-4.73215 -1.34732,-4.92008 0,-0.52002 0.2329,-0.89596 1.25704,-2.02905 7.925589,-8.76865 4.93282,-21.40529 -6.50328,-27.45944 -1.99229,-1.0547 -4.9183,-2.19516 -6.08456,-2.37157 -0.53913,-0.0816 -0.56043,-0.0666 -1.18168,0.83124 -0.94382,1.36398 -3.05158,3.53243 -4.71588,4.85167 -3.80013,3.01226 -8.22164,4.93709 -13.20929,5.75042 -2.78766,0.45459 -7.39677,0.31313 -10.29913,-0.31609 -0.45569,-0.0988 -0.46016,-0.094 -0.94347,1.01034 -1.9074,4.35833 -1.86556,8.88614 0.12243,13.25073 0.94159,2.06724 2.03841,3.61341 3.89564,5.49166 2.94147,2.97476 6.66261,5.08215 11.15333,6.31645 2.40668,0.66149 4.00794,0.89494 6.76803,0.98671 3.70285,0.12312 6.42659,-0.22974 9.8854,-1.28065 1.36326,-0.4142 1.48856,-0.42835 2.03391,-0.22968 0.31963,0.11644 2.79543,1.2412 5.50178,2.49947 2.70635,1.25826 4.94172,2.26717 4.9675,2.24201 0.0258,-0.0251 -0.55943,-2.10602 -1.30045,-4.62414 z m -31.94206,-13.38926 c -1.45167,-0.39467 -2.69688,-1.47341 -3.36901,-2.91862 -0.36603,-0.78702 -0.41041,-1.03493 -0.41041,-2.29247 0,-1.21794 0.0511,-1.5252 0.3754,-2.25551 0.47888,-1.07856 1.45742,-2.11163 2.47906,-2.61719 0.69221,-0.34255 0.98207,-0.39623 2.13647,-0.3957 1.17476,5.9e-4 1.43151,0.0503 2.13198,0.41295 1.06048,0.54906 1.89434,1.45409 2.42235,2.6291 0.37928,0.84404 0.43334,1.12261 0.43202,2.22635 -0.001,1.05186 -0.0636,1.40269 -0.37525,2.11029 -0.83906,1.90532 -2.48388,3.09304 -4.39947,3.17686 -0.54168,0.0237 -1.18209,-0.0105 -1.42314,-0.0761 z m 2.15758,-3.12779 c 1.05024,-0.50332 1.51802,-1.74392 1.09671,-2.90858 -0.60325,-1.66761 -2.60759,-2.05989 -3.71589,-0.72728 -0.72947,0.87711 -0.75091,2.17331 -0.0505,3.0521 0.69886,0.87682 1.63227,1.08092 2.66967,0.58376 z m 8.27998,3.01702 c -2.30684,-0.74787 -3.7612,-3.02134 -3.55929,-5.56393 0.14989,-1.88743 1.22872,-3.53335 2.87555,-4.3871 0.71306,-0.36966 0.96222,-0.41831 2.1425,-0.41831 1.19117,0 1.42599,0.0468 2.17148,0.43328 2.79294,1.44772 3.74418,5.08448 2.0362,7.78472 -1.22667,1.93931 -3.57286,2.83006 -5.66644,2.15134 z m 2.43665,-3.01903 c 0.8316,-0.4479 1.20125,-1.09641 1.20125,-2.10751 0,-1.27172 -0.74528,-2.16634 -1.92129,-2.30628 -0.80984,-0.0964 -1.52118,0.22548 -2.0179,0.91299 -0.82368,1.14007 -0.49677,2.7342 0.70849,3.45486 0.69213,0.41384 1.31997,0.42805 2.02945,0.046 z m 8.34124,3.0563 c -1.46192,-0.50622 -2.6064,-1.57683 -3.25173,-3.04185 -0.30591,-0.69448 -0.36722,-1.04537 -0.36618,-2.09574 0.002,-1.63681 0.45428,-2.76269 1.55087,-3.85758 1.10165,-1.09995 1.80716,-1.38785 3.43272,-1.4008 1.16388,-0.009 1.43501,0.0394 2.10884,0.37903 1.14682,0.57793 1.89115,1.33804 2.41927,2.47059 0.42513,0.91168 0.46282,1.10757 0.46282,2.40564 0,1.22133 -0.051,1.52791 -0.3754,2.25863 -0.47244,1.06406 -1.37778,2.02796 -2.40129,2.55661 -0.96684,0.49939 -2.63869,0.65138 -3.57992,0.32547 z m 2.6119,-3.16831 c 1.74698,-1.36581 1.07017,-4.10929 -1.06001,-4.29677 -0.92166,-0.0811 -1.68911,0.38366 -2.11932,1.28349 -0.39989,0.83641 -0.39831,1.2789 0.007,2.0889 0.61591,1.22959 2.19348,1.68934 3.17192,0.92438 z m -38.31978,-13.39786 c 0.18532,0 1.09339,0.26223 2.01793,0.58274 6.18312,2.14349 12.90769,1.8561 18.80627,-0.80371 1.82576,-0.82329 2.71482,-1.33484 4.33728,-2.49563 5.05756,-3.61841 8.44414,-8.97166 9.46127,-14.95564 0.32207,-1.89479 0.32083,-5.10393 -0.003,-7.04021 -0.43401,-2.59746 -1.57792,-5.73758 -2.86032,-7.85186 -1.34574,-2.21868 -4.11802,-5.2997203 -6.07393,-6.7503903 -4.3377,-3.21722 -9.05101,-4.85086 -14.48073,-5.01905 -4.72835,-0.14645 -8.83998,0.80357 -12.86394,2.97234 -12.6781,6.8330103 -16.31997,22.5478303 -7.80874,33.6949903 0.55146,0.72225 1.03522,1.49034 1.07502,1.70687 0.0442,0.2402 -0.44779,2.44781 -1.26188,5.6627 -0.73384,2.89797 -1.37961,5.46327 -1.43505,5.70067 -0.097,0.41538 0.10381,0.32164 5.32589,-2.48608 2.98468,-1.60476 5.57832,-2.91774 5.76364,-2.91774 z m 8.1121,-5.29963 c -0.74296,-0.28673 -1.26531,-1.23704 -1.26531,-2.302 0,-1.60923 1.01298,-2.58726 2.52235,-2.43532 1.27977,0.12883 1.99711,0.91455 2.08143,2.27985 0.0993,1.60844 -0.75742,2.57123 -2.26969,2.55057 -0.47184,-0.006 -0.95279,-0.0483 -1.06878,-0.0931 z m -0.51678,-9.32414 c 0.15182,-2.44 1.01457,-4.39503 3.00043,-6.79913 2.85394,-3.455 3.53924,-4.6862 3.66215,-6.5793 0.10028,-1.54462 -0.17826,-2.58412 -0.93596,-3.49287 -0.87182,-1.04562 -1.70675,-1.36476 -3.59306,-1.3734 -1.74946,-0.008 -2.89782,0.29156 -4.61266,1.20326 -0.5332,0.28347 -0.98347,0.49442 -1.00061,0.46877 -0.0277,-0.0415 -0.22415,-0.52611 -0.87899,-2.16873 l -0.19512,-0.48945 1.32564,-0.66295 c 1.81082,-0.90559 3.16672,-1.25153 5.29145,-1.35005 2.96385,-0.13742 4.70204,0.44242 6.26854,2.09114 1.28599,1.35349 1.85543,3.20651 1.69217,5.50656 -0.19519,2.7498 -1.10962,4.54799 -3.9703,7.80739 -1.88558,2.14841 -2.96661,4.05988 -3.20638,5.66954 -0.0446,0.2994 -0.11559,0.77814 -0.15775,1.06385 l -0.0767,0.51948 h -1.35043 -1.35044 z"
       id="path34"
       inkscape:connector-curvature="0" />
  </g>
</svg>
