<?xml version="1.0" encoding="UTF-8" standalone="no"?>
<!-- Created with Inkscape (http://www.inkscape.org/) -->

<svg
   xmlns:dc="http://purl.org/dc/elements/1.1/"
   xmlns:cc="http://creativecommons.org/ns#"
   xmlns:rdf="http://www.w3.org/1999/02/22-rdf-syntax-ns#"
   xmlns:svg="http://www.w3.org/2000/svg"
   xmlns="http://www.w3.org/2000/svg"
   xmlns:sodipodi="http://sodipodi.sourceforge.net/DTD/sodipodi-0.dtd"
   xmlns:inkscape="http://www.inkscape.org/namespaces/inkscape"
   width="100px"
   height="100px"
   viewBox="0 0 100 100"
   version="1.1"
   id="SVGRoot"
   sodipodi:docname="part5.svg"
   inkscape:version="0.92.4 (5da689c313, 2019-01-14)">
  <defs
     id="defs58" />
  <sodipodi:namedview
     id="base"
     pagecolor="#ffffff"
     bordercolor="#666666"
     borderopacity="1.0"
     inkscape:pageopacity="0.0"
     inkscape:pageshadow="2"
     inkscape:zoom="3.6203867"
     inkscape:cx="81.001858"
     inkscape:cy="33.39413"
     inkscape:document-units="px"
     inkscape:current-layer="layer1"
     showgrid="false"
     inkscape:window-width="1366"
     inkscape:window-height="705"
     inkscape:window-x="-8"
     inkscape:window-y="-8"
     inkscape:window-maximized="1"
     inkscape:grid-bbox="true" />
  <metadata
     id="metadata61">
    <rdf:RDF>
      <cc:Work
         rdf:about="">
        <dc:format>image/svg+xml</dc:format>
        <dc:type
           rdf:resource="http://purl.org/dc/dcmitype/StillImage" />
        <dc:title></dc:title>
      </cc:Work>
    </rdf:RDF>
  </metadata>
  <g
     inkscape:label="Layer 1"
     inkscape:groupmode="layer"
     id="layer1">
    <path
       style="fill:#81858e;stroke-width:0.16211809;fill-opacity:1"
       d="m 61.122378,99.599653 c -4.385532,-0.484978 -8.28969,-1.639735 -12.239756,-3.620246 -3.741017,-1.87569 -6.499604,-3.899138 -9.458166,-6.937638 L 37.489095,87.054111 H 18.869546 0.25 V 43.652056 0.24999654 H 44.231518 88.213034 V 21.18243 42.11486 l 1.398431,1.324858 C 96.629983,50.089 100.45198,59.864506 99.643045,69.097417 99.004151,76.389568 96.36686,82.511301 91.45666,88.099806 85.870699,94.457427 77.584458,98.652359 68.711029,99.61484 c -1.721025,0.186676 -5.837772,0.178434 -7.588651,-0.01516 z m 6.527874,-1.274996 c 2.552833,-0.219009 4.477867,-0.5522 6.596296,-1.141702 C 87.080484,93.611616 96.415309,83.201501 98.103194,70.578243 98.414916,68.246938 98.337723,63.727591 97.951361,61.689274 96.867743,55.972422 94.485211,50.977478 90.788942,46.673361 82.004981,36.444889 67.438274,32.48358 54.268116,36.741809 35.49754,42.810781 26.394331,63.021504 34.762108,80.048587 c 3.230845,6.574245 8.454901,11.695314 15.269633,14.968601 5.521479,2.652104 11.711878,3.814208 17.618511,3.307469 z M 62.019962,95.96702 C 58.57453,95.562752 56.066088,94.963989 53.338119,93.894666 43.669015,90.104524 36.828131,82.17251 34.660396,72.237829 c -0.323324,-1.481808 -0.369367,-2.15916 -0.372219,-5.475584 -0.0037,-4.284706 0.183355,-5.515421 1.375097,-9.048176 1.505121,-4.461722 3.947915,-8.227984 7.612602,-11.737001 2.577185,-2.467704 4.681716,-3.916248 7.973102,-5.487859 12.033666,-5.745989 26.565666,-3.363768 35.912161,5.887056 8.849687,8.759088 11.155143,21.515703 5.881738,32.544998 -3.430617,7.175127 -10.097444,12.952469 -17.892405,15.505212 -3.588069,1.175045 -6.611561,1.651459 -10.274566,1.618974 -1.301494,-0.01156 -2.586671,-0.04687 -2.855944,-0.07843 z m 7.636362,-1.601406 c 11.054807,-1.764425 20.079877,-9.171477 23.429364,-19.228947 1.058607,-3.178666 1.236223,-4.381863 1.236248,-8.374422 1.8e-5,-3.167687 -0.04669,-3.836285 -0.371478,-5.314538 C 90.531566,45.885838 74.863602,36.06083 58.754137,39.376931 c -3.710998,0.7639 -8.145173,2.668192 -11.17241,4.798085 -2.034492,1.431421 -4.975322,4.249001 -6.447945,6.177732 -4.807337,6.296241 -6.637414,14.237294 -5.042081,21.878555 0.684594,3.279046 2.577267,7.543792 4.541339,10.232983 5.051094,6.915915 12.897774,11.334665 21.568669,12.146108 1.996017,0.186791 5.464148,0.07291 7.454615,-0.24478 z m -5.470126,-10.04338 c -0.22403,-0.1739 -0.558019,-0.663079 -0.742209,-1.087066 -0.688677,-1.585283 -0.871201,-2.983221 -0.967559,-7.41031 -0.05058,-2.323045 -0.137234,-4.194676 -0.192605,-4.159172 -0.05539,0.03549 -0.431141,0.869902 -0.835052,1.854206 -0.701746,1.71011 -0.856448,1.937909 -3.480798,5.125451 -4.185874,5.084177 -4.156458,5.052617 -4.655559,4.995577 -0.327019,-0.03737 -0.443397,-0.150624 -0.480734,-0.467832 -0.03978,-0.337952 0.57587,-1.175056 3.197898,-4.348258 1.785931,-2.161355 3.359856,-4.147144 3.497607,-4.412875 0.217511,-0.419588 1.70523,-3.890099 2.485312,-5.797678 0.227237,-0.55567 -0.05687,-0.316635 -2.067709,1.739717 l -2.33114,2.383902 -4.800996,1.530136 c -4.748299,1.513349 -4.80446,1.526722 -5.116983,1.218316 -0.213225,-0.210415 -0.28048,-0.422229 -0.206803,-0.6513 0.09097,-0.282848 0.876451,-0.58289 4.708991,-1.798791 l 4.599804,-1.459322 1.909431,-1.964466 1.90943,-1.964472 -1.90943,-0.200592 C 56.2594,67.190263 53.299721,66.700513 50.514594,66.09176 43.637553,64.588618 39.832103,62.239156 40.298737,59.784556 c 0.357162,-1.878747 3.402994,-2.367072 7.794564,-1.24967 2.872974,0.731007 8.071198,2.716412 11.297331,4.314891 0.631524,0.312904 1.085913,0.46298 1.036833,0.342443 -0.04805,-0.118016 -0.553935,-1.021876 -1.12419,-2.008571 -1.031913,-1.785477 -1.053704,-1.809161 -4.5852,-4.982752 -1.951601,-1.753808 -3.591678,-3.323412 -3.64461,-3.488005 -0.123622,-0.384357 0.199054,-0.767485 0.644284,-0.764995 0.222551,0.0013 1.665574,1.19325 4.019136,3.320003 l 3.671931,3.318056 1.198918,2.115326 c 2.157484,3.806563 1.971991,3.544339 2.299985,3.251418 0.27459,-0.245226 0.270062,-0.29277 -0.09578,-1.005868 -0.211195,-0.411669 -0.383987,-0.992733 -0.383987,-1.291267 0,-0.772732 0.575382,-1.784121 1.232737,-2.166858 l 0.56243,-0.32747 v -6.89861 c 0,-4.0926 0.06473,-7.066641 0.159154,-7.311714 0.172973,-0.448956 0.76349,-0.565519 1.11378,-0.219843 0.14619,0.144262 0.197428,1.991539 0.202121,7.287355 l 0.0063,7.094105 0.518017,0.322096 c 1.22245,0.760101 1.657255,2.422339 0.938109,3.586312 -0.270749,0.438207 -0.291417,0.579901 -0.123338,0.845493 0.111062,0.175489 0.23934,0.318249 0.285064,0.31725 0.0457,-0.0013 0.772759,-1.233551 1.615626,-2.738994 1.514463,-2.704985 1.553803,-2.756637 3.345533,-4.3926 5.029286,-4.592059 5.636489,-5.106131 6.031122,-5.106131 0.383161,0 0.596224,0.261957 0.596224,0.733033 0,0.122954 -1.650457,1.717433 -3.667691,3.543291 l -3.667693,3.319742 -1.049293,1.878861 c -0.577103,1.033373 -1.030296,1.89854 -1.007091,1.922594 0.02319,0.02404 0.842317,-0.346089 1.820246,-0.822539 3.93641,-1.917841 9.397449,-3.851563 12.353999,-4.374474 3.078803,-0.544532 5.231679,-0.07368 5.836945,1.276596 0.837963,1.869403 -1.170317,3.875662 -5.3595,5.354091 -3.105909,1.096123 -8.714372,2.252633 -12.837089,2.647107 l -2.061003,0.197207 1.840748,1.8653 c 1.012409,1.025918 1.923012,1.917994 2.023558,1.982391 0.100545,0.0644 2.156824,0.746864 4.569507,1.516581 2.41268,0.769726 4.478496,1.468734 4.590692,1.553359 0.307528,0.231962 0.244805,0.886779 -0.102513,1.070205 -0.228773,0.120823 -0.673694,0.04352 -1.754363,-0.30476 -0.796322,-0.256655 -2.946282,-0.949742 -4.777697,-1.540198 l -3.329837,-1.073553 -2.20076,-2.243991 c -1.21042,-1.234195 -2.224438,-2.220635 -2.253373,-2.192076 -0.02893,0.02855 0.557322,1.485258 1.302794,3.237125 l 1.355402,3.18521 3.248628,3.939 c 1.78674,2.166451 3.314144,4.079916 3.394231,4.252143 0.186485,0.401059 -0.133872,0.803932 -0.639278,0.803932 -0.288899,0 -1.132864,-0.920453 -3.774337,-4.116418 -3.3467,-4.04922 -3.415807,-4.148112 -4.233446,-6.058247 l -0.831209,-1.94183 -0.10717,1.251154 c -0.05897,0.688131 -0.107607,2.345391 -0.108138,3.682807 -0.0018,4.025494 -0.609763,6.873488 -1.652716,7.73952 -0.591214,0.490912 -1.097803,0.51955 -1.647175,0.09311 z m 1.246919,-2.06115 c 0.14068,-0.419691 0.303154,-1.107316 0.361053,-1.528049 l 0.105283,-0.764969 h -0.91977 c -1.041244,0 -1.021006,-0.04121 -0.680109,1.385221 0.278309,1.164521 0.575092,1.855476 0.750914,1.748238 0.06977,-0.04254 0.241953,-0.420749 0.382629,-0.840441 z m 0.718913,-4.185319 c 0.04984,-0.346455 0.0013,-0.362353 -1.10158,-0.362353 -1.127363,0 -1.153726,0.0094 -1.153726,0.409976 0,0.403481 0.01746,0.409221 1.101581,0.362353 1.000917,-0.04328 1.106342,-0.08073 1.153725,-0.409976 z m 0.02942,-2.214391 c 0,-0.391113 -0.03263,-0.402612 -1.142381,-0.402612 -1.109734,0 -1.142375,0.0115 -1.142375,0.402612 0,0.391113 0.03263,0.402616 1.142375,0.402616 1.10974,0 1.142381,-0.0115 1.142381,-0.402616 z m -0.02998,-2.27353 c -0.05021,-0.409629 -0.08379,-0.421493 -1.194014,-0.421493 -1.110229,0 -1.143832,0.01187 -1.194016,0.421493 l -0.05163,0.421499 h 1.245653 1.245653 z m 0.02998,-2.32335 V 70.7743 l -1.183177,0.04729 c -1.155834,0.0462 -1.184374,0.05758 -1.234816,0.490194 l -0.05163,0.442882 h 1.234816 1.234817 z m 0,-2.247601 V 68.533754 H 64.957472 63.7335 v 0.483139 0.48314 h 1.223972 1.223979 z m 0.133237,-2.21439 c -0.05083,-0.435943 -0.07145,-0.443612 -1.316414,-0.489915 l -1.264774,-0.04705 v 0.489915 0.489915 h 1.316413 1.316414 z m -4.865944,-1.180176 c -1.541684,-1.302673 -9.877128,-4.822499 -13.679148,-5.776325 -3.627312,-0.909989 -6.446591,-0.616093 -6.114422,0.637403 0.231612,0.873998 2.5336,2.324835 5.024264,3.166555 3.644322,1.231597 10.269917,2.427721 13.545327,2.445348 l 1.795166,0.0097 -0.571187,-0.482635 z m 13.626928,-0.05429 c 3.315145,-0.567862 7.511451,-1.610555 9.258156,-2.300451 3.474334,-1.372257 5.050893,-3.184785 3.273625,-3.763609 -1.990292,-0.648203 -5.713509,0.145249 -11.5526,2.461958 -3.693242,1.465331 -8.078242,3.691724 -8.078242,4.101561 0,0.229338 4.827004,-0.110269 7.099061,-0.499459 z M 66.01825,64.835364 c 0,-0.517269 -1.438116,-0.645017 -1.876764,-0.16671 -0.292571,0.319027 -0.285046,0.322094 0.790689,0.322094 0.597341,0 1.086075,-0.06992 1.086075,-0.155384 z m -0.175039,-2.362555 c 0.18603,-0.233386 0.338239,-0.585963 0.338239,-0.783518 0,-0.516349 -0.606444,-1.207846 -1.059279,-1.207846 -0.627459,0 -0.923501,0.181376 -1.145157,0.70159 -0.545207,1.27958 1.014875,2.357788 1.866197,1.289774 z M 36.479641,85.68561 c 0,-0.04407 -0.246567,-0.424555 -0.547926,-0.8455 -0.301361,-0.420939 -0.860514,-1.290755 -1.24257,-1.932929 L 33.994491,81.739593 H 19.815011 5.6354921 V 43.652056 5.5645328 H 44.231518 82.827542 V 21.979472 38.394406 l 0.856787,0.487485 c 0.471229,0.268118 1.370853,0.854642 1.999157,1.303386 l 1.142382,0.815899 0.042,-19.530098 c 0.02307,-10.74155 0.007,-19.6206808 -0.03565,-19.7314004 C 86.770358,1.5793396 78.08444,1.5383678 44.155082,1.5383678 H 1.5555755 V 43.652056 85.765743 H 19.017622 c 9.604126,0 17.462052,-0.0361 17.462052,-0.08015 z M 17.05923,80.328203 c 0,-0.166377 -4.2938,-4.386283 -4.463082,-4.386283 -0.153813,0 -4.512736,4.25986 -4.512736,4.410181 0,0.05454 2.019559,0.09912 4.487908,0.09912 2.468356,0 4.48791,-0.05539 4.48791,-0.12302 z m 10.484674,-2.171187 -2.324837,-2.294212 -2.324834,2.294212 -2.324837,2.294207 h 4.649671 4.649674 z m -5.988599,-5.909911 -2.685828,-2.650444 -2.65072,2.615798 -2.650721,2.615796 2.682153,2.650467 2.682153,2.650461 2.654397,-2.615816 2.654396,-2.61582 z m 10.63913,7.358625 0.511523,-0.523405 -0.717574,-2.093602 c -0.39467,-1.151483 -0.878136,-2.927022 -1.074367,-3.945642 -0.196231,-1.01862 -0.385991,-1.956613 -0.421685,-2.084425 -0.04145,-0.148414 -0.829118,0.520088 -2.17977,1.84998 l -2.11487,2.082374 2.650369,2.619059 c 1.457704,1.440483 2.69188,2.619059 2.742611,2.619059 0.0507,0 0.322424,-0.235529 0.603763,-0.523398 z M 9.3897887,72.641213 c -1.2096614,-1.196197 -2.2554946,-2.1749 -2.3240585,-2.1749 -0.068564,0 -0.1246627,2.010757 -0.1246627,4.468339 v 4.46834 l 2.3240585,-2.293447 2.32406,-2.293439 z m 5.8353663,-6.642161 -2.650146,-2.61884 -2.6538044,2.615231 -2.6537975,2.61523 2.6501468,2.618835 2.6501471,2.618838 2.653797,-2.615229 2.653804,-2.615231 z m 12.562375,5.395231 c 1.572783,-1.549633 2.490665,-2.574152 2.490665,-2.780006 0,-0.206069 -0.930404,-1.242707 -2.529203,-2.817977 l -2.529202,-2.491978 -2.611491,2.607481 c -1.43632,1.434117 -2.611496,2.664272 -2.611496,2.733675 0,0.13565 5.082411,5.202813 5.218471,5.202813 0.0449,0 1.20239,-1.104303 2.572256,-2.454008 z m -6.197676,-6.445619 2.650119,-2.61881 -2.653802,-2.615229 -2.653798,-2.615231 -2.689036,2.657266 -2.689037,2.657266 2.607353,2.576774 c 1.434044,1.417226 2.645767,2.576773 2.692719,2.576773 0.04694,0 1.277918,-1.178465 2.735482,-2.618809 z M 9.2659028,60.11978 6.9410675,57.825568 v 4.588419 4.588412 L 9.2659028,64.708194 11.59074,62.413987 Z M 30.44625,63.220986 c 0.190366,-1.705198 0.722767,-4.38448 1.056996,-5.319321 0.120357,-0.336624 0.174175,-0.656121 0.119587,-0.70999 -0.05459,-0.05387 -1.290834,1.081005 -2.747219,2.521927 l -2.647975,2.619857 1.984475,1.976827 1.984484,1.976823 0.03954,-0.768976 c 0.02171,-0.422935 0.116299,-1.456651 0.210129,-2.297147 z M 15.346345,53.557065 c -1.434383,-1.417562 -2.683132,-2.577389 -2.774994,-2.577389 -0.09186,0 -1.340326,1.159547 -2.7743701,2.576773 l -2.6073533,2.576775 2.6896289,2.657857 2.6896335,2.657855 2.692712,-2.657242 2.69272,-2.657241 z m 12.566137,5.152215 2.60797,-2.577383 -2.650677,-2.615754 -2.650677,-2.615755 -2.650676,2.615755 -2.650675,2.615754 2.607968,2.577383 c 1.434376,1.417562 2.646402,2.577376 2.693383,2.577376 0.047,0 1.259007,-1.159814 2.693384,-2.577376 z m -6.364676,-11.431846 -2.693361,-2.657875 -2.650713,2.61579 -2.650715,2.615792 2.689678,2.657898 2.689678,2.657899 2.654397,-2.615814 2.654394,-2.615822 z m 12.234998,4.962575 c 0.393164,-0.768313 1.011599,-1.855373 1.374299,-2.415699 l 0.659465,-1.018761 -2.115855,-2.092313 -2.115857,-2.092308 -2.693316,2.654169 -2.693317,2.654167 2.648258,2.616977 2.648261,2.616972 0.786613,-0.763132 c 0.485556,-0.471065 1.060197,-1.29778 1.501449,-2.160072 z M 9.2659028,47.558145 6.9410675,45.263933 v 4.588419 4.588412 L 9.2659028,52.146557 11.59074,49.852352 Z m 5.9592522,-6.52132 -2.650146,-2.61884 -2.6538044,2.615231 -2.6537975,2.615231 2.6501468,2.61884 2.6501471,2.61884 2.653797,-2.615231 2.653804,-2.615231 z m 12.72937,5.230438 2.65012,-2.618816 -2.692742,-2.653602 -2.692743,-2.653608 -2.61118,2.573001 c -1.43615,1.41515 -2.611177,2.645493 -2.611177,2.734099 0,0.161313 5.061401,5.237735 5.222239,5.237735 0.04694,0 1.277919,-1.178466 2.735483,-2.618809 z m 9.585926,0.243483 c 0.448794,-0.589743 1.562354,-1.800322 2.47458,-2.690182 l 1.658586,-1.617928 -1.901208,-1.892666 -1.901209,-1.892666 -2.653871,2.615297 -2.653879,2.615298 1.996462,1.974899 c 1.098052,1.086196 2.034283,1.971593 2.080507,1.967553 0.04626,-0.0043 0.451243,-0.489867 0.900032,-1.079605 z m -15.950597,-6.524301 2.650119,-2.618816 -2.653802,-2.615231 -2.653798,-2.615224 -2.689036,2.657266 -2.689037,2.657265 2.607353,2.576775 c 1.434044,1.417226 2.645767,2.576775 2.692719,2.576775 0.04694,0 1.277918,-1.178467 2.735482,-2.61881 z m 12.68669,0.04206 2.607353,-2.576773 -2.689036,-2.657267 -2.68903,-2.657266 -2.653804,2.615225 -2.653804,2.615231 2.650122,2.618815 c 1.457562,1.440345 2.688529,2.61881 2.735487,2.61881 0.04694,0 1.258668,-1.159549 2.692712,-2.576775 z M 9.2659028,35.157579 6.9410675,32.863372 v 4.588414 4.588419 L 9.2659028,39.745991 11.59074,37.451786 Z M 44.58208,40.008035 c 0.704771,-0.498436 1.942349,-1.275313 2.750176,-1.726394 0.807824,-0.45108 1.578925,-0.888666 1.713569,-0.972415 0.195379,-0.12154 -0.266037,-0.658993 -2.286011,-2.662719 l -2.530801,-2.510452 -2.689286,2.657521 -2.689296,2.657522 1.950312,1.929643 c 1.691177,1.673256 1.986825,1.903331 2.225122,1.731597 0.151143,-0.108929 0.851441,-0.605862 1.556215,-1.104303 z m 36.939893,-4.730377 c 0,-1.284345 -0.03528,-2.335175 -0.07841,-2.335175 -0.171022,0 -3.015154,2.989847 -2.987356,3.140405 0.01635,0.08858 0.584326,0.405831 1.262159,0.705011 0.677828,0.299178 1.302184,0.607176 1.387451,0.684448 0.359149,0.325443 0.416154,0.02483 0.416154,-2.194689 z M 40.641842,28.594844 c -1.434384,-1.417566 -2.683136,-2.577388 -2.774996,-2.577388 -0.09186,0 -1.340333,1.159549 -2.774377,2.576775 l -2.607347,2.576773 2.689629,2.657857 2.689627,2.65785 2.69272,-2.657235 2.692717,-2.657242 z M 15.345697,33.747693 17.95302,31.170943 15.345697,28.5942 c -1.434026,-1.417208 -2.682484,-2.576744 -2.774346,-2.576744 -0.09186,0 -1.340315,1.159536 -2.7743391,2.576744 l -2.6073223,2.576743 2.6073223,2.57675 c 1.4340241,1.417209 2.6824781,2.576744 2.7743391,2.576744 0.09186,0 1.34032,-1.159535 2.774346,-2.576744 z m 12.566785,-6.44e-4 2.60797,-2.577383 -2.650677,-2.615707 -2.650677,-2.615754 -2.650676,2.615754 -2.650675,2.615755 2.607968,2.577377 c 1.434376,1.417561 2.646402,2.577382 2.693383,2.577382 0.047,0 1.259007,-1.159821 2.693384,-2.577382 z m 25.295496,0 2.607962,-2.577383 -2.650675,-2.615742 -2.650671,-2.615754 -2.650677,2.615754 -2.650677,2.615754 2.607963,2.577377 c 1.434384,1.417562 2.646402,2.577382 2.693391,2.577382 0.047,0 1.259006,-1.15982 2.693384,-2.577382 z m 4.293,0.701649 1.359959,-0.266522 -1.025174,-1.020744 -1.025176,-1.020744 -1.597631,1.617895 c -0.878695,0.889884 -1.597627,1.642181 -1.597627,1.671812 0,0.02964 0.568283,-0.119149 1.262844,-0.330622 0.694567,-0.211474 1.874835,-0.504439 2.622805,-0.651026 z m 21.535517,-1.077107 2.165627,-2.140143 -2.642271,-2.607002 c -1.453244,-1.433843 -2.685673,-2.606988 -2.738725,-2.606988 -0.05305,0 -1.269592,1.159365 -2.703408,2.576372 l -2.606952,2.576378 1.854307,1.835073 c 1.736057,1.71806 1.923227,1.855671 2.935253,2.157991 0.594521,0.1776 1.191107,0.328662 1.325745,0.335692 0.134635,0.007 1.219327,-0.950283 2.410424,-2.127361 z m -8.448264,-0.187133 -1.050909,-1.046363 -0.78834,0.764532 -0.788346,0.764533 0.456794,0.112058 c 0.466621,0.114469 2.320026,0.388757 2.900034,0.429186 0.233967,0.01631 0.03516,-0.262889 -0.729233,-1.023946 z m -6.37007,0.485216 1.871805,-0.07585 1.227316,-1.211144 1.227321,-1.211146 -2.607623,-2.577042 c -1.434187,-1.417366 -2.673635,-2.577029 -2.75432,-2.577029 -0.08068,0 -1.326288,1.161605 -2.768012,2.581345 l -2.62131,2.581351 1.378926,1.372895 1.378927,1.372897 0.897582,-0.09021 c 0.493669,-0.04961 1.739895,-0.124342 2.769388,-0.166061 z m -42.670355,-11.354476 -2.693361,-2.65787 -2.650713,2.615791 -2.650715,2.61579 2.689678,2.657899 2.689678,2.6579 2.654397,-2.615815 2.654394,-2.615821 z m 12.687906,-0.04084 -2.650714,-2.61579 -2.693385,2.654233 -2.69339,2.654241 2.650744,2.619431 2.650739,2.619425 2.69336,-2.657874 2.693359,-2.657877 z m 12.607587,0.04084 -2.693359,-2.65787 -2.650713,2.615791 -2.650714,2.61579 2.689672,2.657899 2.689676,2.6579 2.654395,-2.615815 2.654403,-2.615821 z m 12.687909,-0.04084 -2.650713,-2.61579 -2.693392,2.654233 -2.693384,2.654241 2.650738,2.619431 2.650745,2.619425 2.693362,-2.657874 2.693359,-2.657877 z m 12.67236,0.07262 c -1.451803,-1.435683 -2.684669,-2.609735 -2.739694,-2.608992 -0.05502,6.44e-4 -1.267551,1.166882 -2.694489,2.591431 l -2.594425,2.590098 2.674794,2.643194 2.674795,2.643193 2.659325,-2.624295 2.65933,-2.624286 z M 9.2659028,22.595926 6.9410675,20.301721 v 4.588412 4.588419 L 9.2659028,27.184376 11.59074,24.890169 Z m 72.2560702,2.256139 v -4.547449 l -2.284756,2.25034 c -1.256615,1.237683 -2.284758,2.317944 -2.284758,2.400578 0,0.178879 4.26689,4.443901 4.44585,4.443901 0.06802,0 0.123664,-2.046334 0.123664,-4.547412 z m -66.296818,-8.77742 -2.650146,-2.61884 -2.6538044,2.615231 -2.6537975,2.615234 2.6501468,2.618834 2.6501471,2.61884 2.653797,-2.615231 2.653804,-2.615231 z m 12.72937,5.230435 2.65012,-2.61881 -2.692742,-2.653611 -2.692743,-2.653607 -2.61118,2.573 c -1.43615,1.415151 -2.611177,2.645496 -2.611177,2.734109 0,0.161312 5.061401,5.237728 5.222239,5.237728 0.04694,0 1.277919,-1.178465 2.735483,-2.618809 z m 12.566127,-5.230435 -2.650155,-2.61884 -2.653798,2.615231 -2.653804,2.615234 2.650147,2.618834 2.650147,2.61884 2.653805,-2.615231 2.653796,-2.615231 z m 12.729367,5.230435 2.650116,-2.61881 -2.692743,-2.653611 -2.692742,-2.653607 -2.611177,2.573 c -1.436148,1.415151 -2.611177,2.645496 -2.611177,2.734109 0,0.161312 5.061404,5.237728 5.222236,5.237728 0.04694,0 1.277919,-1.178465 2.735487,-2.618809 z m 14.928553,-2.903514 c -0.152463,-0.166252 -1.337805,-1.351851 -2.634091,-2.634657 l -2.356892,-2.332383 -2.664598,2.625871 -2.664598,2.625873 2.650145,2.618834 2.650147,2.61884 2.648543,-2.61005 c 2.53835,-2.50145 2.637016,-2.622633 2.371344,-2.912328 z m 10.366939,2.903514 2.650122,-2.61881 -2.689352,-2.65027 -2.689349,-2.65026 -2.614569,2.598706 c -1.438017,1.429284 -2.61457,2.65271 -2.61457,2.718715 0,0.132704 5.090789,5.219821 5.224148,5.22038 0.04589,1.6e-4 1.276006,-1.178117 2.73357,-2.618461 z M 21.589854,15.024259 24.239973,12.405448 21.586171,9.7902185 18.932373,7.1749892 16.243337,9.8322549 13.5543,12.489522 l 2.607353,2.576772 c 1.434044,1.417227 2.645767,2.576774 2.692719,2.576774 0.04694,0 1.277918,-1.178458 2.735482,-2.618809 z m 12.68669,0.04206 2.607353,-2.576772 -2.689036,-2.6572669 -2.68903,-2.6572658 -2.653804,2.6152294 -2.653804,2.6152313 2.650122,2.618809 c 1.457562,1.440351 2.688529,2.618809 2.735487,2.618809 0.04694,0 1.258668,-1.159546 2.692712,-2.576774 z m 12.608803,-0.04206 2.650116,-2.618811 -2.653798,-2.6152295 -2.653804,-2.6152293 -2.689035,2.6572657 -2.68903,2.6572671 2.607347,2.576772 c 1.434042,1.417227 2.645765,2.576774 2.692717,2.576774 0.04694,0 1.277918,-1.178458 2.735487,-2.618809 z m 12.683746,0.04492 2.604411,-2.573863 -0.647963,-0.661813 C 61.16917,11.469506 59.962603,10.270282 58.844291,9.1685609 l -2.033298,-2.0031282 -2.658634,2.6199947 -2.65864,2.6199966 2.650114,2.618811 c 1.457571,1.440351 2.688539,2.618809 2.735491,2.618809 0.04694,0 1.257347,-1.158239 2.689769,-2.573865 z m 12.611745,-0.04492 2.650123,-2.618811 -2.653804,-2.6152295 -2.6538,-2.6152293 -2.6879,2.6561464 -2.687901,2.6561464 2.60813,2.574233 c 1.43447,1.415834 2.64568,2.575888 2.691583,2.577896 0.04589,0.0018 1.276005,-1.174801 2.733569,-2.615152 z M 9.2659028,10.19533 6.9410675,7.9011209 v 4.5884161 4.588416 L 9.2659028,14.783745 11.59074,12.489537 Z M 81.442571,8.0092412 c -0.100084,-0.098763 -4.490112,4.2242828 -4.490112,4.4216018 0,0.07428 1.009782,1.13349 2.243962,2.353809 l 2.243955,2.218762 0.04342,-4.455319 c 0.02387,-2.450424 0.0055,-4.4929088 -0.0412,-4.5388538 z M 14.89472,9.2305816 c 1.190499,-1.1723968 2.164541,-2.1869903 2.164541,-2.2546525 0,-0.067662 -2.019554,-0.1230235 -4.48791,-0.1230235 -2.468348,0 -4.487908,0.053382 -4.487908,0.118627 0,0.1819488 4.29766,4.3906784 4.483455,4.3906784 0.0898,0 1.137323,-0.959233 2.327822,-2.1316294 z M 27.585452,9.1075581 29.865834,6.8529056 h -4.646736 -4.646735 l 2.280384,2.2546525 c 1.254206,1.2400589 2.319066,2.2546529 2.366351,2.2546529 0.04731,0 1.112145,-1.014594 2.366354,-2.2546529 z m 12.729347,0 2.28038,-2.2546525 h -4.608124 c -2.534465,0 -4.608119,0.053382 -4.608119,0.118627 0,0.1846479 4.299093,4.3906784 4.48783,4.3906784 0.09221,0 1.193825,-1.014594 2.448033,-2.2546529 z m 12.566141,0 2.280384,-2.2546525 h -4.64673 -4.646738 l 2.280384,2.2546525 c 1.254208,1.2400589 2.31907,2.2546529 2.366354,2.2546529 0.04731,0 1.112139,-1.014594 2.366346,-2.2546529 z m 12.729348,0 2.280384,-2.2546525 h -4.608119 c -2.534471,0 -4.608126,0.053144 -4.608126,0.1181003 0,0.1806911 4.301559,4.3845191 4.490099,4.3880801 0.09096,0.0017 1.191553,-1.011469 2.445762,-2.2515279 z m 12.56615,0 2.280384,-2.2546525 h -4.646737 -4.646738 l 2.280384,2.2546525 c 1.254208,1.2400589 2.31907,2.2546529 2.366354,2.2546529 0.04731,0 1.112145,-1.014594 2.366353,-2.2546529 z"
       id="path1033"
       inkscape:connector-curvature="0" />
  </g>
</svg>
