<?xml version="1.0" encoding="UTF-8" standalone="no"?>
<!-- Created with Inkscape (http://www.inkscape.org/) -->

<svg
   xmlns:dc="http://purl.org/dc/elements/1.1/"
   xmlns:cc="http://creativecommons.org/ns#"
   xmlns:rdf="http://www.w3.org/1999/02/22-rdf-syntax-ns#"
   xmlns:svg="http://www.w3.org/2000/svg"
   xmlns="http://www.w3.org/2000/svg"
   xmlns:sodipodi="http://sodipodi.sourceforge.net/DTD/sodipodi-0.dtd"
   xmlns:inkscape="http://www.inkscape.org/namespaces/inkscape"
   width="100px"
   height="100px"
   viewBox="0 0 100 100"
   version="1.1"
   id="SVGRoot"
   sodipodi:docname="part3.svg"
   inkscape:version="0.92.4 (5da689c313, 2019-01-14)">
  <defs
     id="defs58" />
  <sodipodi:namedview
     id="base"
     pagecolor="#ffffff"
     bordercolor="#666666"
     borderopacity="1.0"
     inkscape:pageopacity="0.0"
     inkscape:pageshadow="2"
     inkscape:zoom="3.6203867"
     inkscape:cx="81.001858"
     inkscape:cy="33.39413"
     inkscape:document-units="px"
     inkscape:current-layer="layer1"
     showgrid="false"
     inkscape:window-width="1366"
     inkscape:window-height="705"
     inkscape:window-x="-8"
     inkscape:window-y="-8"
     inkscape:window-maximized="1"
     inkscape:grid-bbox="true" />
  <metadata
     id="metadata61">
    <rdf:RDF>
      <cc:Work
         rdf:about="">
        <dc:format>image/svg+xml</dc:format>
        <dc:type
           rdf:resource="http://purl.org/dc/dcmitype/StillImage" />
        <dc:title></dc:title>
      </cc:Work>
    </rdf:RDF>
  </metadata>
  <g
     inkscape:label="Layer 1"
     inkscape:groupmode="layer"
     id="layer1">
    <path
       style="fill:#81858e;stroke-width:0.16311297;fill-opacity:1"
       d="M 0.72678711,99.273201 0.25,98.79641 V 65.8453 C 0.25,44.413283 0.3066616,32.745163 0.41207382,32.467894 0.74588417,31.589885 0.97545667,31.568031 9.865055,31.568031 h 8.157531 l 0.04405,-15.26539 0.04405,-15.2653904 0.45765,-0.39362532 L 19.025989,0.25 h 26.402404 26.402401 l 0.542629,0.4475396 c 0.298446,0.2461467 4.396131,4.1511647 9.105965,8.6778146 C 88.938934,16.54477 94.46276,21.844662 98.523573,25.728599 l 1.142714,1.092938 0.04186,35.986351 L 99.75,98.794239 99.272127,99.272123 98.79426,99.75 H 49.998922 1.2035742 Z M 58.929681,65.699793 58.970862,34.667215 H 31.078439 3.1860018 v 30.964617 c 0,17.030543 0.049147,31.013761 0.1092078,31.073827 0.060064,0.06005 12.5931214,0.09065 27.8512384,0.06796 l 27.742033,-0.04124 z M 7.6953791,93.151642 7.263782,92.751646 v -3.822914 c 0,-3.519735 0.02471,-3.853456 0.3115473,-4.207997 0.308882,-0.381785 0.3437797,-0.385502 4.0817727,-0.434409 l 3.77023,-0.04932 0.493891,0.493907 0.493894,0.4939 -0.04933,3.770031 -0.04933,3.770039 -0.457651,0.393387 c -0.454093,0.390329 -0.485936,0.393385 -4.09474,0.393385 -3.6346026,0 -3.6373852,-3.26e-4 -4.0686855,-0.400001 z m 5.6493699,-2.746511 c 0.04442,-0.115748 0.07062,-0.868115 0.05823,-1.671928 l -0.02252,-1.461479 -1.590336,-0.04667 -1.590333,-0.04667 v 1.718609 1.718613 h 1.532105 c 1.100667,0 1.554846,-0.05924 1.612859,-0.210446 z m 7.180914,2.752849 -0.457651,-0.393665 V 88.90287 85.04143 l 0.457651,-0.393665 c 0.454486,-0.390945 0.483058,-0.393663 4.131108,-0.393663 h 3.673453 l 0.476786,0.476798 0.476787,0.476793 -0.0052,3.723412 c -0.0037,2.669499 -0.06143,3.796658 -0.203889,3.982212 -0.444113,0.578452 -0.866306,0.638327 -4.501329,0.638327 -3.559909,0 -3.593923,-0.0031 -4.047729,-0.393664 z m 5.78706,-4.21433 -0.04648,-1.671926 h -1.631112 -1.63111 l -0.04754,1.455124 c -0.02614,0.800318 -0.0101,1.552683 0.03566,1.671926 0.06157,0.160456 0.509907,0.216804 1.725131,0.216804 h 1.641939 z m 7.154227,4.207992 -0.431595,-0.399996 v -3.746087 c 0,-2.06035 0.0456,-3.86491 0.101321,-4.010133 0.242713,-0.632513 0.886242,-0.741324 4.384235,-0.741324 3.854194,0 4.188706,0.08208 4.490858,1.10197 0.115393,0.389508 0.161974,1.841993 0.128595,4.009799 l -0.05234,3.399074 -0.457651,0.393349 c -0.45408,0.390278 -0.48604,0.39335 -4.094742,0.39335 -3.634601,0 -3.637382,-3.26e-4 -4.068684,-0.400002 z m 5.603518,-4.248772 v -1.712702 h -1.549557 -1.549555 v 1.712702 1.712708 h 1.549555 1.549557 z m 7.283944,4.46404 c -0.73928,-0.429747 -0.759548,-0.715586 -0.758586,-10.697939 6.53e-4,-6.02763 0.06212,-9.645517 0.170706,-10.036536 0.291877,-1.051022 0.620514,-1.126673 4.645945,-1.069424 l 3.494395,0.04969 0.451911,0.452171 0.451913,0.452175 0.0495,9.416266 c 0.02725,5.178954 0.0031,9.737449 -0.05382,10.129991 -0.06214,0.429033 -0.257851,0.868206 -0.490667,1.101027 -0.384825,0.384828 -0.410537,0.387276 -4.02394,0.382344 -2.28174,-0.0031 -3.748677,-0.07009 -3.937364,-0.179771 z m 5.39949,-10.757239 -0.04229,-8.005901 -1.50883,-0.0275 -1.508832,-0.0275 4.9e-5,8.033402 5.5e-5,8.033402 h 1.551092 1.551096 z M 7.6641466,80.428314 7.263782,80.027943 v -3.812175 -3.812176 l 0.4209199,-0.395446 c 0.4201108,-0.394681 0.4280706,-0.395439 4.1461941,-0.395439 3.718125,0 3.726085,6.52e-4 4.146197,0.395439 l 0.420918,0.395446 v 3.549468 c 0,2.061071 -0.07109,3.73645 -0.169523,3.995367 -0.321468,0.845532 -0.443181,0.869488 -4.445783,0.875074 l -3.7181938,0.0049 z m 5.7442954,-4.083976 c 0.0154,-0.806699 -0.03314,-1.540718 -0.107846,-1.631146 -0.07923,-0.0959 -0.75367,-0.142601 -1.618324,-0.112066 l -1.482488,0.05234 v 1.625473 1.625481 l 1.590334,-0.04667 1.590334,-0.04667 z m 7.196093,4.261977 c -0.522425,-0.396919 -0.618079,-1.071773 -0.618079,-4.360697 0,-3.64085 0.113674,-4.193053 0.933029,-4.532447 0.34581,-0.143243 1.495596,-0.186158 4.030713,-0.150438 l 3.546887,0.05 0.393356,0.457663 c 0.391056,0.454987 0.393356,0.479591 0.393356,4.20762 v 3.749953 l -0.400365,0.400372 -0.400363,0.400378 -3.799751,-0.0049 c -2.858784,-0.0037 -3.868849,-0.0577 -4.078783,-0.217186 z m 5.708186,-4.358743 -0.04648,-1.645053 -1.631112,-7.5e-5 -1.631109,-8e-5 -0.04754,1.428331 c -0.02614,0.785577 -0.0101,1.525884 0.03566,1.645128 0.06158,0.160461 0.509909,0.216804 1.725131,0.216804 h 1.64194 z m 7.122997,4.180742 -0.400363,-0.400371 v -3.812175 -3.812176 l 0.420536,-0.395446 c 0.41341,-0.388738 0.478329,-0.396284 3.830001,-0.445344 3.854599,-0.05641 4.384991,0.05444 4.709222,0.984575 0.227116,0.65152 0.231226,6.805866 0.0049,7.40105 -0.321467,0.845532 -0.44318,0.869488 -4.445782,0.875074 l -3.718194,0.0049 z m 5.634802,-4.207615 5e-5,-1.671926 -1.508829,0.02719 -1.508829,0.02719 -0.04648,1.644715 -0.04648,1.644721 h 1.555264 1.555262 z M 7.7757391,67.69196 7.263782,67.261164 v -3.744552 -3.744551 l 0.4003646,-0.400372 0.4003646,-0.400378 h 3.7663848 3.766386 l 0.408881,0.408891 0.408879,0.408887 -0.04929,3.746326 c -0.06477,4.922739 0.374756,4.472986 -4.434873,4.538052 l -3.6431787,0.04926 z m 5.4865259,-2.72618 c 0.09153,-0.112141 0.155569,-0.864506 0.142305,-1.671926 l -0.02412,-1.468033 -1.590334,-0.04667 -1.590334,-0.04667 v 1.609864 c 0,0.885431 0.04893,1.658807 0.108741,1.718613 0.203556,0.203561 2.777605,0.120643 2.953739,-0.09515 z m 7.573278,2.969079 c -0.709707,-0.284833 -0.849087,-1.01728 -0.849087,-4.462031 0,-1.802222 0.07331,-3.368179 0.169523,-3.621252 0.322138,-0.847301 0.436939,-0.869488 4.527339,-0.875075 l 3.799751,-0.0049 0.400363,0.400379 0.400365,0.40037 v 3.744552 3.744552 L 28.781948,67.683742 28.2801,68.10603 24.744945,68.09567 c -1.944334,-0.0056 -3.703565,-0.07795 -3.909402,-0.16056 z m 5.477243,-4.524438 0.04655,-1.677698 -1.677661,0.04655 -1.677659,0.04655 -0.04754,1.455124 c -0.02614,0.800317 -0.0091,1.555359 0.03794,1.677868 0.06593,0.171806 0.449784,0.212057 1.678645,0.176024 l 1.593175,-0.04673 z m 7.234526,4.281539 -0.511957,-0.430796 v -3.744552 -3.744551 l 0.400364,-0.400372 0.400361,-0.400378 h 3.668321 c 3.642978,0 3.671485,0.0025 4.125975,0.393787 l 0.457651,0.393788 v 3.761216 c 0,4.940432 0.435626,4.488145 -4.385581,4.553365 l -3.643177,0.04926 z m 5.523156,-4.234993 v -1.712703 h -1.549557 -1.549555 v 1.603958 c 0,0.882183 0.04893,1.652902 0.10874,1.712708 0.05981,0.0598 0.757107,0.108744 1.549556,0.108744 h 1.440816 z m 7.316526,4.401422 c -0.23719,-0.128854 -0.51244,-0.467175 -0.611667,-0.751824 -0.224061,-0.642758 -0.242871,-6.370019 -0.02343,-7.135173 0.277894,-0.968985 0.368087,-0.989182 4.441819,-0.994891 3.680429,-0.0049 3.704311,-0.0031 4.159337,0.388153 l 0.457646,0.393345 0.05018,3.265176 c 0.05746,3.740748 -0.05931,4.463035 -0.78207,4.836804 -0.674469,0.34879 -7.049286,0.347471 -7.691812,-0.0018 z m 5.371076,-4.442197 0.04648,-1.671928 h -1.555264 -1.555263 v 1.718825 1.71883 l 1.50878,-0.04692 1.508775,-0.04691 z M 7.1038857,55.989741 C 6.2951395,55.578743 6.2900896,55.523202 6.287519,47.010608 l -0.0024,-7.964391 0.4767871,-0.4768 0.4767872,-0.476791 H 31.048221 54.857754 l 0.506582,0.473229 0.506589,0.473229 v 8.081199 8.0812 l -0.393644,0.457662 -0.393643,0.457656 -23.787592,0.03927 C 12.421187,56.187206 7.4248967,56.15299 7.1038857,55.989741 Z M 52.896154,47.104717 52.853364,41.110248 H 31.07802 9.3026737 l -0.042791,5.994469 -0.042791,5.994463 H 31.078014 52.938938 Z M 96.73028,62.886065 V 29.039754 L 83.599826,28.955768 C 76.378082,28.909592 70.453609,28.854527 70.434339,28.833437 70.005056,28.363567 69.977592,27.688682 69.898484,15.664345 L 69.816934,3.2676231 H 45.431805 21.046679 V 17.377047 31.486475 l 19.899569,0.08156 c 10.944761,0.04488 20.02361,0.142774 20.175229,0.217592 0.151612,0.07482 0.390159,0.310789 0.530106,0.524386 0.228346,0.3485 0.254454,3.66688 0.254454,32.337394 0,17.571977 0.04926,31.998314 0.109482,32.058528 0.06023,0.06023 7.895665,0.0908 17.412121,0.06796 l 17.30264,-0.04149 z M 77.210902,92.895407 C 71.90036,91.99923 67.640559,88.288358 65.793409,82.949181 65.26459,81.420652 65.257308,81.35968 65.257308,78.463527 c 0,-2.89616 0.0073,-2.957132 0.536101,-4.485656 1.73924,-5.027266 5.533696,-8.525497 10.547968,-9.724532 1.387241,-0.331718 4.594176,-0.372068 6.112531,-0.0769 2.570857,0.499769 5.662121,2.227427 7.498933,4.19103 1.323171,1.414504 2.275379,2.9169 2.994254,4.724345 0.753508,1.894507 0.978321,3.156475 0.971472,5.453265 -0.01244,4.17901 -1.288277,7.284401 -4.195329,10.211597 -1.661774,1.673288 -2.772362,2.436949 -4.708662,3.237761 -2.281291,0.943485 -5.410689,1.304789 -7.803674,0.900966 z m 5.309351,-3.344001 c 4.033484,-1.102055 7.333198,-4.576811 8.160599,-8.593502 1.308721,-6.353333 -2.24612,-12.272774 -8.307895,-13.834114 -4.331356,-1.115631 -9.012555,0.462793 -11.752657,3.962811 -1.56339,1.996969 -2.312706,3.992839 -2.464466,6.564316 -0.129628,2.19649 0.215166,3.9037 1.200226,5.942781 0.62695,1.297793 0.967416,1.763163 2.152371,2.942052 1.897918,1.8882 3.882298,2.907873 6.464061,3.321542 0.885203,0.141838 3.570037,-0.03871 4.547761,-0.305886 z m -3.340951,-2.320464 c -0.0091,-0.06728 -0.0043,-0.348147 0.01005,-0.624134 0.03323,-0.627101 -0.164768,-0.779894 -1.337406,-1.03214 -1.302518,-0.280179 -3.875688,-1.689786 -3.875688,-2.123134 0,-0.07343 0.300449,-0.510866 0.667665,-0.972079 l 0.667663,-0.838572 0.497366,0.418509 c 0.708006,0.595763 1.971767,1.205035 2.603009,1.254946 l 0.539189,0.04266 V 81.333634 79.31026 l -0.81556,-0.277399 c -2.769137,-0.94189 -3.666731,-1.970304 -3.669092,-4.203848 -0.0013,-1.100625 0.289981,-1.784912 1.161881,-2.730828 0.815963,-0.88524 1.695162,-1.37483 2.738904,-1.525181 0.694396,-0.100027 0.747394,-0.14185 0.752874,-0.59418 0.0055,-0.457201 0.04494,-0.486576 0.652444,-0.486576 0.610213,0 0.649422,0.02978 0.697662,0.530119 0.03643,0.37811 0.133498,0.530125 0.33843,0.530125 0.733806,0 3.927597,1.336583 3.931647,1.645374 6.52e-4,0.05271 -0.288712,0.500725 -0.643115,0.995656 l -0.644372,0.899875 -0.945964,-0.464833 c -0.520281,-0.255655 -1.18451,-0.511019 -1.47607,-0.567478 l -0.530114,-0.102653 v 2.035118 2.035111 l 1.0582,0.286449 c 1.490761,0.403539 2.780185,1.360374 3.280104,2.434059 1.223023,2.626676 -0.537531,5.550072 -3.645082,6.052665 l -0.693222,0.112117 v 0.719678 0.719681 h -0.652444 c -0.358848,0 -0.659882,-0.05505 -0.668969,-0.122338 z m 2.71554,-4.35812 c 0.345096,-0.26322 0.550842,-0.581018 0.602052,-0.929924 0.159263,-1.085138 -0.229577,-1.630924 -1.547625,-2.172276 l -0.611662,-0.251227 v 1.979952 1.97996 l 0.51649,-0.1033 c 0.284068,-0.05684 0.752404,-0.283249 1.040745,-0.503185 z m -2.699019,-8.242494 c 0,-1.948893 -0.01067,-1.967573 -0.927271,-1.620282 -0.850647,0.32231 -1.193171,0.787444 -1.193171,1.620282 0,0.815589 0.336025,1.289675 1.141861,1.611011 0.957147,0.381674 0.978581,0.346391 0.978581,-1.611011 z m -15.16621,-7.701393 c -0.31678,-0.214085 -0.607033,-0.580907 -0.681818,-0.861672 -0.140527,-0.527586 -0.05739,-0.719735 4.405821,-10.185032 l 1.956558,-4.149332 2.907823,-3.424356 C 83.12911,35.930287 86.617647,31.920931 87.291298,31.44462 c 2.803414,-1.982184 6.567835,-0.948424 8.008908,2.19936 0.361695,0.790064 0.400392,1.055947 0.339392,2.331867 -0.06005,1.256254 -0.132496,1.542513 -0.567332,2.242032 -0.274162,0.441043 -3.060617,3.804611 -6.192118,7.474592 -3.131508,3.669979 -6.929951,8.123805 -8.440988,9.89738 l -2.74734,3.224692 -6.057891,4.137013 c -3.33184,2.275355 -6.281726,4.184972 -6.555307,4.243587 -0.37192,0.07969 -0.636576,0.01251 -1.049009,-0.266208 z m 6.345283,-6.856598 c 0.808882,-0.56071 1.986798,-1.372031 2.617589,-1.802945 0.630792,-0.430911 1.146892,-0.840241 1.146892,-0.909629 0,-0.239804 -2.491085,-2.32402 -2.619313,-2.191497 -0.26584,0.274749 -2.897693,5.923542 -2.759861,5.923542 0.0792,0 0.805812,-0.458767 1.614693,-1.019471 z M 84.140341,46.574591 c 3.504997,-4.081949 6.731627,-7.825433 7.170292,-8.318853 1.150074,-1.293644 1.483093,-2.008657 1.358594,-2.917009 -0.218352,-1.593059 -1.810254,-2.356942 -3.338831,-1.602164 -0.212353,0.104854 -1.90013,1.953634 -3.750604,4.108396 -1.85048,2.154761 -5.405954,6.290788 -7.90106,9.191176 -2.495105,2.900384 -4.514032,5.337549 -4.486512,5.415924 0.02749,0.07837 0.784049,0.776275 1.681156,1.55089 l 1.631116,1.4084 0.631563,-0.707517 c 0.347357,-0.389138 3.499282,-4.047295 7.004286,-8.129243 z M 28.194229,21.226384 c -0.63241,-0.543989 -0.623325,-1.61659 0.01837,-2.168564 l 0.436944,-0.375854 h 15.73855 15.738556 l 0.400363,0.400372 c 0.294586,0.294599 0.400357,0.576671 0.400357,1.067661 0,0.49099 -0.105778,0.773063 -0.400357,1.067661 l -0.400363,0.400372 H 44.388092 28.649542 Z m 0.466382,-8.599976 C 27.924333,12.411494 27.551887,11.570567 27.82562,10.741129 28.183892,9.6555332 27.41459,9.7010243 44.603728,9.7490012 l 15.481877,0.043211 0.420879,0.3954408 c 0.591498,0.55574 0.591505,1.589429 1.9e-5,2.145182 l -0.420861,0.395443 -15.4417,0.02811 c -9.574509,0.01743 -15.647497,-0.03196 -15.983331,-0.12998 z m 65.704555,13.178173 c 0,-0.02996 -2.84425,-2.774061 -6.320556,-6.098047 C 84.568304,16.382551 79.778949,11.791475 77.401605,9.5041497 75.024254,7.2168223 73.024105,5.3776724 72.956821,5.4171494 72.805704,5.5058121 72.79227,25.599313 72.943271,25.750274 c 0.106787,0.10679 21.421938,0.160826 21.421938,0.05431 z"
       id="path1061"
       inkscape:connector-curvature="0" />
  </g>
</svg>
