<?xml version="1.0" encoding="UTF-8" standalone="no"?>
<!-- Created with Inkscape (http://www.inkscape.org/) -->

<svg
   xmlns:dc="http://purl.org/dc/elements/1.1/"
   xmlns:cc="http://creativecommons.org/ns#"
   xmlns:rdf="http://www.w3.org/1999/02/22-rdf-syntax-ns#"
   xmlns:svg="http://www.w3.org/2000/svg"
   xmlns="http://www.w3.org/2000/svg"
   xmlns:sodipodi="http://sodipodi.sourceforge.net/DTD/sodipodi-0.dtd"
   xmlns:inkscape="http://www.inkscape.org/namespaces/inkscape"
   width="100px"
   height="100px"
   viewBox="0 0 100 100"
   version="1.1"
   id="SVGRoot"
   sodipodi:docname="part4.svg"
   inkscape:version="0.92.4 (5da689c313, 2019-01-14)">
  <defs
     id="defs58" />
  <sodipodi:namedview
     id="base"
     pagecolor="#ffffff"
     bordercolor="#666666"
     borderopacity="1.0"
     inkscape:pageopacity="0.0"
     inkscape:pageshadow="2"
     inkscape:zoom="1.8101934"
     inkscape:cx="125.06302"
     inkscape:cy="16.473166"
     inkscape:document-units="px"
     inkscape:current-layer="layer1"
     showgrid="false"
     inkscape:window-width="1366"
     inkscape:window-height="705"
     inkscape:window-x="-8"
     inkscape:window-y="-8"
     inkscape:window-maximized="1"
     inkscape:grid-bbox="true" />
  <metadata
     id="metadata61">
    <rdf:RDF>
      <cc:Work
         rdf:about="">
        <dc:format>image/svg+xml</dc:format>
        <dc:type
           rdf:resource="http://purl.org/dc/dcmitype/StillImage" />
        <dc:title></dc:title>
      </cc:Work>
    </rdf:RDF>
  </metadata>
  <g
     inkscape:label="Layer 1"
     inkscape:groupmode="layer"
     id="layer1">
    <path
       style="fill:#81858e;stroke-width:0.14935237;fill-opacity:1"
       d="M 15.558653,99.53829 C 15.108697,99.417459 14.469999,99.158061 14.139319,98.961853 13.808639,98.765646 10.70584,95.761601 7.2442057,92.286205 1.3605913,86.379192 0.92787437,85.90891 0.60582833,85.071491 0.34202889,84.385538 0.25895884,83.859099 0.25122868,82.824236 0.24174168,81.555713 0.27505708,81.404551 0.794131,80.360774 1.3246044,79.294056 1.9727618,78.624801 16.705646,63.931408 33.628633,47.05378 32.547425,48.022908 34.641324,47.854942 c 0.513607,-0.04119 0.933826,-0.116553 0.933826,-0.167457 0,-0.0509 -1.832062,-1.916539 -4.071251,-4.145855 l -4.071259,-4.053308 -1.718146,0.45081 c -2.234157,0.586203 -5.804965,0.743351 -8.067809,0.355055 C 10.236254,39.022594 4.0708494,33.82453 1.7461071,26.888386 0.45800664,23.045179 0.37049929,18.221807 1.5253076,14.717654 c 0.4714813,-1.430678 1.422933,-2.026623 2.4233967,-1.517907 0.1794833,0.09126 2.2760575,2.098265 4.6590464,4.459999 4.8445533,4.801339 4.9403293,4.869483 6.6793343,4.75224 0.517147,-0.03487 1.209191,-0.191756 1.537878,-0.348647 0.864258,-0.412534 5.367755,-4.926629 5.745821,-5.759348 0.187908,-0.413883 0.299691,-0.982838 0.301759,-1.535898 0.0066,-1.766071 0.05133,-1.70388 -4.632327,-6.4372605 C 15.883874,5.949483 13.845128,3.8349895 13.709668,3.6319582 13.195874,2.8618686 13.552061,1.8040956 14.485047,1.3293038 15.140319,0.99583871 17.53013,0.49604497 19.297611,0.32282755 c 3.716738,-0.36424942 8.30066,0.65968904 11.561845,2.58264295 5.411054,3.1906245 8.949444,8.3585155 9.950367,14.5327175 0.39983,2.466366 0.06858,6.769233 -0.685552,8.905203 l -0.224001,0.634462 6.463198,6.465056 c 3.554761,3.555786 6.531626,6.465062 6.615259,6.465062 0.08364,0 5.678315,-5.526 12.432623,-12.279998 l 12.280564,-12.279999 -0.19789,-2.71391 c -0.108842,-1.492652 -0.166021,-2.8805477 -0.127059,-3.084212 0.116081,-0.6068246 0.684438,-0.9973047 4.598089,-3.1590549 2.05431,-1.1347168 5.244543,-2.9015153 7.089413,-3.9262182 4.115088,-2.28565652 4.222039,-2.33270273 4.839647,-2.12901449 0.582368,0.19206666 5.539693,5.11543429 5.768302,5.72879069 0.08629,0.231515 0.113511,0.5936712 0.06049,0.8047902 -0.128261,0.5106792 -8.070554,14.7998207 -8.476658,15.2505347 -0.174326,0.193473 -0.460606,0.407266 -0.636175,0.475097 -0.178161,0.06883 -1.564582,0.03202 -3.137482,-0.08332 L 84.654326,22.304815 72.365863,34.5773 c -6.758659,6.749864 -12.288472,12.339211 -12.288472,12.420767 0,0.08156 8.598664,8.748631 19.108144,19.260156 18.834944,18.838622 19.115604,19.12788 19.630284,20.231632 0.694726,1.489857 0.914189,2.489944 0.90098,4.105774 -0.02304,2.818698 -1.462161,5.522461 -3.767828,7.078844 -1.781938,1.20285 -3.873187,1.713135 -6.060827,1.478904 C 88.455955,99.000039 87.321718,98.601387 86.164918,97.84478 85.550308,97.442794 79.881214,91.879212 68.81777,80.820486 59.778974,71.785542 52.340892,64.393317 52.288693,64.393317 c -0.05218,0 -0.122596,0.419909 -0.156444,0.933133 -0.137221,2.080559 0.73884,1.106008 -16.227022,18.051273 -11.072316,11.058871 -15.532371,15.419951 -16.017484,15.662041 -1.477107,0.737128 -2.851286,0.895371 -4.32909,0.498526 z m 2.312141,-3.207294 c 0.51705,-0.138736 2.588559,-2.146266 15.366513,-14.891932 8.122894,-8.102371 14.963724,-14.993605 15.201843,-15.313861 0.352635,-0.474266 0.432948,-0.732269 0.432948,-1.390849 0,-0.444713 -0.07427,-0.955319 -0.165043,-1.134679 C 48.47225,63.135714 36.92838,51.578181 36.441646,51.319749 c -0.221894,-0.117818 -0.766468,-0.21421 -1.210168,-0.21421 -0.656623,0 -0.915138,0.08056 -1.389402,0.432967 -0.320478,0.238135 -7.185894,7.040659 -15.256482,15.116721 C 8.2354377,77.012396 3.8442515,81.502529 3.6825562,81.894054 c -0.4845945,1.1734 -0.2314326,1.93754 1.0901075,3.290374 L 5.6122178,86.043871 18.688784,73.002676 C 33.603703,58.128113 32.284613,59.242439 34.977538,59.242439 c 1.444882,0 1.645414,0.03645 2.539867,0.46202 1.234224,0.587192 2.162246,1.51457 2.749843,2.747948 0.426472,0.895167 0.462181,1.092076 0.46034,2.538116 -0.0034,2.697389 1.115506,1.374474 -13.767735,16.277523 l -13.050183,13.067552 0.860036,0.847835 c 1.2389,1.221337 1.906046,1.468214 3.101088,1.147563 z m 73.964832,-0.448168 c 3.704919,-0.678216 5.687418,-4.587393 4.024673,-7.936007 C 95.542946,87.307709 91.964181,83.656355 76.616257,68.31247 66.246455,57.945385 57.693592,49.463228 57.609896,49.463228 c -0.0837,0 -0.876609,0.726186 -1.762028,1.613747 l -1.609856,1.613749 0.527176,0.874858 c 0.621944,1.032132 0.734354,1.525403 0.655938,2.878417 -0.07272,1.254788 -0.472712,2.102357 -1.461573,3.097043 -0.408176,0.410574 -0.744977,0.814085 -0.748445,0.896686 -0.0034,0.0826 7.742161,7.886716 17.212498,17.342483 18.390461,18.36216 17.784869,17.802044 19.568359,18.098865 0.433354,0.07211 0.825997,0.138982 0.872538,0.148581 0.04653,0.0096 0.483542,-0.05558 0.971123,-0.144829 z m -2.101565,-3.094245 c -0.986602,-0.631679 -1.421115,-1.387294 -1.41688,-2.463953 0.0077,-1.944549 2.23418,-3.134507 3.966618,-2.119924 1.588145,0.930068 1.658809,3.362122 0.127781,4.397967 -0.736304,0.498158 -2.047624,0.589212 -2.677519,0.18591 z M 37.084158,66.423808 c 0.572433,-0.769349 0.614265,-2.016503 0.09353,-2.788689 -0.71676,-1.062863 -1.997525,-1.473648 -3.198901,-1.025993 -0.235735,0.08784 -6.051136,5.779607 -13.231484,12.950187 L 7.9364053,88.352775 9.7648264,90.184337 11.593254,92.0159 24.122078,79.510992 C 31.012933,72.633293 36.845867,66.744057 37.084156,66.423808 Z m 13.751929,-8.4131 c 0.706997,-0.718513 1.323968,-1.46814 1.371045,-1.665837 0.04709,-0.197699 -0.0045,-0.567217 -0.114534,-0.821157 -0.110066,-0.253935 -1.840912,-2.090948 -3.84632,-4.082249 l -3.646192,-3.620549 h -0.668435 c -0.641681,0 -0.720612,0.05237 -1.9726,1.309338 -0.717291,0.720136 -1.304165,1.374049 -1.304165,1.453146 0,0.192946 8.548953,8.731712 8.743236,8.732819 0.08389,4.47e-4 0.730972,-0.587005 1.437965,-1.305511 z M 67.546616,34.765642 C 77.787051,24.538515 83.295889,19.139506 83.554325,19.077086 c 0.216722,-0.05234 1.372258,-0.0226 2.567864,0.0661 1.195606,0.0887 2.371961,0.161267 2.614123,0.161267 0.420976,0 0.533675,-0.168719 2.568039,-3.844498 2.125876,-3.841126 2.995798,-5.403696 4.170855,-7.4917167 L 96.099366,6.8591302 94.71251,5.4674441 C 93.94974,4.7020157 93.234499,4.0757567 93.123089,4.0757567 c -0.166151,0 -12.196637,6.5869063 -12.397996,6.7881243 -0.03399,0.03397 0.01903,1.235457 0.117883,2.669972 0.09883,1.434514 0.132981,2.765466 0.07589,2.95767 -0.0571,0.192204 -7.138636,7.386507 -15.736766,15.987343 l -15.632963,15.637878 1.114427,1.121147 c 0.612939,0.61663 1.149297,1.121142 1.191907,1.121142 0.04263,0 7.10363,-7.017026 15.691148,-15.593391 z M 40.587069,45.8958 c 1.830634,-1.711289 4.199659,-1.882364 6.214356,-0.448765 l 0.456055,0.324516 1.629028,-1.622862 c 0.895966,-0.892572 1.629028,-1.690897 1.629028,-1.77405 0,-0.08315 -2.801933,-2.951785 -6.226524,-6.374743 L 38.062487,29.776339 37.3954,30.363128 c -0.57297,0.504 -0.765571,0.586792 -1.365121,0.586792 -0.568628,0 -0.769342,-0.07611 -1.082709,-0.410581 -0.862407,-0.920471 -0.730262,-1.606412 0.556246,-2.887349 1.127222,-1.12235 1.431854,-1.75405 1.86867,-3.87502 0.457145,-2.219666 0.361529,-5.680332 -0.214333,-7.757142 C 36.349757,13.104389 34.805707,10.50354 32.624521,8.3832117 29.721391,5.5610872 26.48827,4.0497902 22.427612,3.6167489 20.933321,3.4573941 18.542899,3.592271 18.543549,3.8359018 c 2.99e-4,0.090863 1.381141,1.5425053 3.068664,3.225873 1.687517,1.6833677 3.27436,3.3799242 3.526301,3.7701252 0.678096,1.050199 1.024192,2.319365 1.024192,3.755774 0,1.410175 -0.276477,2.49428 -0.936374,3.671667 -0.622239,1.110184 -5.57503,6.052568 -6.619703,6.605795 -1.549861,0.820756 -3.746728,1.089258 -5.36736,0.656 -1.665257,-0.445189 -2.254338,-0.888261 -5.6070076,-4.217258 -1.7691018,-1.756609 -3.2889785,-3.193836 -3.3775018,-3.193836 -0.4269739,0 -0.3577506,3.826455 0.108028,5.972035 1.0639453,4.900936 4.5274141,9.247501 9.1653704,11.502312 2.364011,1.149294 3.875197,1.50638 6.752764,1.595622 2.683989,0.08324 3.836624,-0.0772 6.245395,-0.869294 1.093316,-0.35953 1.417615,-0.411586 1.792922,-0.287809 0.296589,0.09781 2.32847,2.020665 5.761158,5.452009 2.916636,2.91549 5.361995,5.300894 5.434132,5.300894 0.07213,0 0.554776,-0.396005 1.07254,-0.880011 z"
       id="path1005"
       inkscape:connector-curvature="0" />
  </g>
</svg>
