<?xml version="1.0" encoding="UTF-8" standalone="no"?>
<!-- Created with Inkscape (http://www.inkscape.org/) -->

<svg
   xmlns:dc="http://purl.org/dc/elements/1.1/"
   xmlns:cc="http://creativecommons.org/ns#"
   xmlns:rdf="http://www.w3.org/1999/02/22-rdf-syntax-ns#"
   xmlns:svg="http://www.w3.org/2000/svg"
   xmlns="http://www.w3.org/2000/svg"
   xmlns:sodipodi="http://sodipodi.sourceforge.net/DTD/sodipodi-0.dtd"
   xmlns:inkscape="http://www.inkscape.org/namespaces/inkscape"
   width="100px"
   height="100px"
   viewBox="0 0 100 100"
   version="1.1"
   id="SVGRoot"
   sodipodi:docname="part2.svg"
   inkscape:version="0.92.4 (5da689c313, 2019-01-14)">
  <defs
     id="defs58" />
  <sodipodi:namedview
     id="base"
     pagecolor="#ffffff"
     bordercolor="#666666"
     borderopacity="1.0"
     inkscape:pageopacity="0.0"
     inkscape:pageshadow="2"
     inkscape:zoom="3.6203867"
     inkscape:cx="81.001858"
     inkscape:cy="33.39413"
     inkscape:document-units="px"
     inkscape:current-layer="layer1"
     showgrid="false"
     inkscape:window-width="1366"
     inkscape:window-height="705"
     inkscape:window-x="-8"
     inkscape:window-y="-8"
     inkscape:window-maximized="1"
     inkscape:grid-bbox="true" />
  <metadata
     id="metadata61">
    <rdf:RDF>
      <cc:Work
         rdf:about="">
        <dc:format>image/svg+xml</dc:format>
        <dc:type
           rdf:resource="http://purl.org/dc/dcmitype/StillImage" />
      </cc:Work>
    </rdf:RDF>
  </metadata>
  <g
     inkscape:label="Layer 1"
     inkscape:groupmode="layer"
     id="layer1">
    <path
       style="fill:#81858e;stroke-width:0.19836156;fill-opacity:1"
       d="m 92.652085,94.748085 c -1.967262,-0.756903 -3.37395,-2.838788 -3.377471,-4.998613 l -0.0022,-1.163934 -34.065199,-0.0062 c -20.8429,-0.0037 -34.631061,-0.0824 -35.523054,-0.202557 C 15.15313,87.76641 11.228839,85.928634 7.7301351,82.778613 3.8898955,79.321099 1.0880314,73.828073 0.44635574,68.498853 0.18325655,66.313757 0.18508956,46.548541 0.44862999,43.820784 1.7839878,30.000116 9.5992893,17.919638 21.33638,11.53361 30.290443,6.6617985 40.605518,5.5705929 50.287509,8.4709435 l 2.126605,0.637049 0.400343,-0.594163 c 0.220186,-0.32679 0.88143,-1.1091104 1.469427,-1.7384914 0.868223,-0.9293169 1.285492,-1.2096964 2.220803,-1.4922359 2.263664,-0.6838089 3.74589,-0.191052 6.50568,2.1627839 0.897373,0.7653714 1.829916,1.4434234 2.072319,1.5067784 0.250749,0.06554 0.835875,-0.06684 1.357421,-0.307084 1.239023,-0.570759 2.940637,-0.567006 4.033711,0.0089 1.128426,0.594529 6.666493,6.4257005 7.144856,7.5230005 0.50279,1.15334 0.492426,3.001843 -0.02344,4.186239 -0.21702,0.498231 -0.347887,1.099642 -0.290803,1.33647 0.05708,0.236827 0.729775,1.24109 1.494878,2.2317 1.837159,2.378616 2.208306,3.23425 2.186142,5.039886 -0.03108,2.532946 -0.68316,3.497083 -4.108735,6.075138 -0.02887,0.02172 0.204914,1.07938 0.519585,2.350297 1.259441,5.086724 1.241441,4.74722 1.328829,25.058143 0.08469,19.682324 0.06281,20.259423 -0.837623,22.109899 l -0.478847,0.984052 h 5.935827 5.93583 l -0.05253,-4.200304 -0.05253,-4.200297 -3.401663,-0.05126 c -3.190489,-0.04812 -3.422776,-0.07778 -3.741826,-0.477886 -0.453546,-0.568776 -0.430889,-1.501796 0.04856,-2.001125 0.374432,-0.389924 0.644928,-0.40469 7.337867,-0.400405 7.872919,0.0053 7.920011,0.01316 9.220944,1.595922 1.100193,1.338524 1.158769,1.817165 1.092281,8.925683 -0.05738,6.130355 -0.07624,6.408647 -0.489501,7.21327 -0.554328,1.079289 -1.449321,2.003942 -2.459723,2.541239 -1.039238,0.552632 -3.035342,0.675431 -4.130414,0.254103 z m 3.37821,-3.41402 0.726072,-0.692669 0.05657,-6.168801 0.05657,-6.168793 -0.475933,-0.576193 c -0.46295,-0.560482 -0.52807,-0.576228 -2.389143,-0.577612 l -1.913213,-0.0016 v 6.578784 c 0,7.176953 0.0016,7.18804 1.130094,7.904609 0.981943,0.623506 1.950843,0.52075 2.808971,-0.297902 z M 73.442508,85.108328 c 0.327228,-0.186799 0.876141,-0.639138 1.219804,-1.005191 1.22162,-1.301196 1.198456,-0.917598 1.195062,-19.794628 -0.0029,-17.634834 -0.08837,-20.250692 -0.78134,-23.990211 C 73.99976,34.510388 71.258616,28.496075 67.511043,23.720034 65.885402,21.648255 62.620748,18.467452 60.488825,16.878181 58.113988,15.107829 53.579976,12.715348 50.872295,11.803792 37.692017,7.3665764 23.58176,10.864969 13.828506,20.988154 8.5027708,26.515889 4.9643479,33.667437 3.6187832,41.623151 c -0.323702,1.913894 -0.3594816,3.364576 -0.3594816,14.574526 0,11.149136 0.035167,12.591495 0.3367954,13.812879 1.2704969,5.144627 4.1789809,9.475597 8.193372,12.200584 2.507906,1.702382 4.953313,2.673613 7.85883,3.121262 0.607891,0.09366 12.826407,0.157969 27.152255,0.142922 23.98368,-0.02517 26.094128,-0.05425 26.641954,-0.366996 z m -11.52186,-3.484653 c -5.341821,-1.815504 -6.99358,-8.655023 -3.075564,-12.735158 4.140647,-4.311998 11.135298,-2.079707 12.377062,3.950057 0.674777,3.276571 -1.156359,6.958419 -4.162783,8.370068 -1.446273,0.679088 -3.801968,0.869345 -5.138715,0.415033 z m 3.929203,-3.132155 c 2.296362,-1.089118 3.245552,-3.91211 2.111924,-6.281135 -1.462236,-3.055747 -5.304493,-3.432215 -7.499405,-0.734793 -0.183468,0.225472 -0.478215,0.853424 -0.654997,1.395437 -0.710233,2.177582 0.399546,4.752124 2.446437,5.675423 0.935591,0.422017 2.645485,0.395898 3.596041,-0.05493 z M 37.373095,74.084649 C 33.11823,73.669912 28.801813,72.054381 25.128663,69.50184 23.308266,68.236809 19.684575,64.455921 18.488905,62.574039 16.62478,59.640075 15.259606,56.231731 14.516046,52.655262 c -0.242945,-1.168555 -0.336625,-2.549249 -0.336487,-4.959388 1.95e-4,-3.608225 0.342909,-5.813486 1.367734,-8.801183 1.119626,-3.264067 3.834645,-7.91515 4.987611,-8.54425 0.876715,-0.478369 2.065267,0.346568 2.065267,1.433438 0,0.144589 -0.511079,0.99989 -1.135729,1.900666 -1.989724,2.869292 -3.239844,5.713362 -3.934321,8.950721 -2.773222,12.927605 5.502634,25.806506 18.093548,28.157221 1.814775,0.338816 6.092723,0.337431 7.775225,-0.0023 3.17276,-0.641057 6.589603,-2.144177 9.122897,-4.013307 1.731109,-1.277249 4.3781,-4.097341 5.516569,-5.877331 C 65.69549,48.927714 61.661399,33.088231 49.327502,26.697202 42.34421,23.07868 33.697041,23.596051 27.309135,28.01459 c -0.652975,0.451668 -1.357268,0.877412 -1.565094,0.946104 -0.974142,0.321975 -2.059825,-1.017405 -1.626848,-2.007008 0.437206,-0.999271 4.310525,-3.282554 7.392646,-4.357887 6.087785,-2.123996 13.587774,-1.570171 19.289239,1.424383 3.649126,1.916612 7.493301,5.4675 9.75661,9.012231 2.914953,4.565309 4.223826,9.109291 4.223826,14.663671 0,7.325115 -2.495009,13.579915 -7.468994,18.72423 -3.710282,3.837333 -8.38152,6.400882 -13.286727,7.291674 -1.737304,0.315498 -5.230243,0.511331 -6.650698,0.372869 z M 36.695138,59.730431 c -4.258093,-1.121092 -7.698579,-4.729134 -8.772137,-9.199341 -0.415368,-1.729564 -0.279755,-4.839133 0.292474,-6.706235 1.597842,-5.213537 6.762507,-8.819599 12.056962,-8.418383 4.863197,0.368526 9.10179,3.876705 10.568149,8.746978 0.598636,1.988275 0.597565,5.103375 -0.0024,7.08484 -1.176553,3.885454 -3.947749,6.817054 -7.774493,8.224495 -1.510463,0.555531 -4.756863,0.691967 -6.368507,0.267646 z m 5.044726,-3.033348 c 4.406792,-1.195326 7.315105,-5.824824 6.555843,-10.43571 -0.321129,-1.950165 -1.031765,-3.420019 -2.378148,-4.918865 -1.272046,-1.416093 -2.495602,-2.191588 -4.177695,-2.647844 -4.186849,-1.135666 -8.456605,0.967465 -10.350752,5.098402 -0.703738,1.534787 -0.722146,1.634261 -0.722146,3.902808 0,2.26854 0.01841,2.368023 0.722146,3.902801 1.902331,4.148783 6.145812,6.23897 10.350752,5.098408 z M 77.265216,30.93629 c 0.65364,-0.632908 1.004458,-1.68019 0.849017,-2.534506 -0.06891,-0.378616 -0.759999,-1.48011 -1.674563,-2.668926 -1.497957,-1.947159 -2.141437,-3.288228 -2.130159,-4.439464 0.0022,-0.230293 0.215493,-1.042551 0.473859,-1.805011 0.335816,-0.991024 0.421414,-1.518742 0.300178,-1.850796 -0.223683,-0.612675 -5.518846,-6.138608 -6.104414,-6.370453 -0.330725,-0.130947 -0.850839,-0.03996 -1.902918,0.332881 -1.331011,0.471695 -1.537657,0.493654 -2.561843,0.272237 -0.934562,-0.202043 -1.4205,-0.495087 -3.016151,-1.818896 -1.046158,-0.8679285 -2.085616,-1.6803275 -2.309902,-1.8053305 -0.61491,-0.342703 -1.62365,-0.272236 -2.306055,0.161094 -0.562951,0.357476 -1.77757,1.7914085 -1.604666,1.8944105 0.04166,0.0248 0.947683,0.50055 2.013436,1.057216 7.407271,3.868969 13.907249,10.81583 17.560483,18.76778 l 0.903472,1.966582 0.490089,-0.32279 c 0.26955,-0.177533 0.728613,-0.553747 1.020137,-0.836028 z"
       id="path1234"
       inkscape:connector-curvature="0" />
  </g>
</svg>
